<?xml version="1.0" encoding="UTF-8" standalone="no"?>
<svg width="227px" height="315px" viewBox="0 0 227 315" version="1.1" xmlns="http://www.w3.org/2000/svg" xmlns:xlink="http://www.w3.org/1999/xlink" xmlns:sketch="http://www.bohemiancoding.com/sketch/ns">
    <!-- Generator: Sketch 3.3.3 (12072) - http://www.bohemiancoding.com/sketch -->
    <title>Trim</title>
    <desc>Created with Sketch.</desc>
    <defs></defs>
    <g id="Page-1" stroke="none" stroke-width="1" fill="none" fill-rule="evenodd" sketch:type="MSPage">
        <g id="Spades" sketch:type="MSLayerGroup" transform="translate(10.000000, 26.000000)" fill="#000000">
            <g id="2" transform="translate(0.000000, 9.000000)" sketch:type="MSShapeGroup">
                <path d="M9.8512361,17.4033295 C5.55987112,22.867934 0.968251954,26.012603 0.891993763,30.2759124 C0.866109782,31.6564324 1.70226193,34.0028729 4.32052619,34.4520016 C6.01921223,34.7420409 8.35792949,33.5143904 8.40681039,31.0202937 C8.39685502,30.5237371 8.99557141,30.5366457 8.9899964,31.2170424 C8.91035338,33.1843694 8.21258098,35.4748693 7.04043485,37.3393563 L12.6620374,37.3393563 C11.4898912,35.4748693 10.7924175,33.1843694 10.7124758,31.2170424 C10.7025204,30.5366457 11.3031283,30.5237371 11.2956618,31.0202937 C11.3444432,33.5143904 13.68326,34.7420409 15.381946,34.4520016 C18.0002103,34.0028729 18.8360638,31.6564324 18.8104784,30.2759124 C18.733822,26.012603 14.1425015,22.867934 9.8512361,17.4033295 L9.8512361,17.4033295 Z" id="path6748-4-0"></path>
                <path d="M197.803286,228.590287 C193.511921,223.125682 188.920302,219.981013 188.844044,215.717704 C188.81816,214.337184 189.654312,211.990743 192.272576,211.541614 C193.971262,211.251575 196.309979,212.479226 196.35886,214.973322 C196.348905,215.469879 196.947621,215.45697 196.942046,214.776574 C196.862403,212.809247 196.164631,210.518747 194.992485,208.65426 L200.614087,208.65426 C199.441941,210.518747 198.744467,212.809247 198.664526,214.776574 C198.65457,215.45697 199.255178,215.469879 199.247712,214.973322 C199.296493,212.479226 201.63531,211.251575 203.333996,211.541614 C205.95226,211.990743 206.788114,214.337184 206.762528,215.717704 C206.685872,219.981013 202.094551,223.125682 197.803286,228.590287 L197.803286,228.590287 Z" id="path6752-9-1"></path>
                <path d="M103.826893,0.18019726 C94.6420615,13.2952321 84.8144116,20.8424636 84.6511434,31.0743901 C84.5963888,34.3876581 86.3854697,40.0191072 91.9893516,41.0970083 C95.6250555,41.7931046 100.630719,38.8467492 100.73525,32.8609173 C100.719322,31.6691915 101.995501,31.7001621 101.983555,33.333122 C101.812323,38.0546909 100.319613,43.5518908 97.8108581,48.0266616 L109.842927,48.0266616 C107.334172,43.5518908 105.841463,38.0546909 105.67023,33.333122 C105.658284,31.7001621 106.934464,31.6691915 106.918535,32.8609173 C107.023067,38.8467492 112.02873,41.7931046 115.664434,41.0970083 C121.268316,40.0191072 123.057397,34.3876581 123.002642,31.0743901 C122.839374,20.8424636 113.011724,13.2952321 103.826893,0.18019726 L103.826893,0.18019726 Z" id="path6760-2-4"></path>
                <path d="M103.826893,245.813289 C94.6420615,232.698254 84.8144116,225.151023 84.6511434,214.919096 C84.5963888,211.605828 86.3854697,205.974379 91.9893516,204.896478 C95.6250555,204.200382 100.630719,207.146737 100.73525,213.132569 C100.719322,214.324295 101.995501,214.293324 101.983555,212.660364 C101.812323,207.938796 100.319613,202.441596 97.8108581,197.966825 L109.842927,197.966825 C107.334172,202.441596 105.841463,207.938796 105.67023,212.660364 C105.658284,214.293324 106.934464,214.324295 106.918535,213.132569 C107.023067,207.146737 112.02873,204.200382 115.664434,204.896478 C121.268316,205.974379 123.057397,211.605828 123.002642,214.919096 C122.839374,225.151023 113.011724,232.698254 103.826893,245.813289 L103.826893,245.813289 Z" id="path6774-6-2"></path>
            </g>
        </g>
    </g>
</svg>