<?xml version="1.0" encoding="UTF-8" standalone="no"?>
<svg width="227px" height="315px" viewBox="0 0 227 315" version="1.1" xmlns="http://www.w3.org/2000/svg" xmlns:xlink="http://www.w3.org/1999/xlink" xmlns:sketch="http://www.bohemiancoding.com/sketch/ns">
    <!-- Generator: Sketch 3.3.3 (12072) - http://www.bohemiancoding.com/sketch -->
    <title>Trim</title>
    <desc>Created with Sketch.</desc>
    <defs></defs>
    <g id="Page-1" stroke="none" stroke-width="1" fill="none" fill-rule="evenodd" sketch:type="MSPage">
        <g id="Spades" sketch:type="MSLayerGroup" transform="translate(10.000000, 26.000000)" fill="#000000">
            <g id="3" transform="translate(0.000000, 9.000000)" sketch:type="MSShapeGroup">
                <path d="M9.95631511,17.4033295 C5.66494017,22.867934 1.07332101,26.012603 0.997062816,30.2759124 C0.971178835,31.6564324 1.80733098,34.0028729 4.42559524,34.4520016 C6.12428128,34.7420409 8.46299854,33.5143904 8.51187945,31.0202937 C8.50192407,30.5237371 9.10064047,30.5366457 9.09506545,31.2170424 C9.01542244,33.1843694 8.31765003,35.4748693 7.1455039,37.3393563 L12.7671164,37.3393563 C11.5949702,35.4748693 10.8974965,33.1843694 10.8175548,31.2170424 C10.8075994,30.5366457 11.4082073,30.5237371 11.4007408,31.0202937 C11.4495222,33.5143904 13.788339,34.7420409 15.487025,34.4520016 C18.1052893,34.0028729 18.9411428,31.6564324 18.9155574,30.2759124 C18.838901,26.012603 14.2475805,22.867934 9.95631511,17.4033295 L9.95631511,17.4033295 Z" id="path6816-2-4"></path>
                <path d="M197.908365,228.590287 C193.617,223.125682 189.025381,219.981013 188.949123,215.717704 C188.923239,214.337184 189.759391,211.990743 192.377655,211.541614 C194.076341,211.251575 196.415058,212.479226 196.463939,214.973322 C196.453984,215.469879 197.0527,215.45697 197.047125,214.776574 C196.967482,212.809247 196.26971,210.518747 195.097564,208.65426 L200.719166,208.65426 C199.54702,210.518747 198.849546,212.809247 198.769605,214.776574 C198.759649,215.45697 199.360257,215.469879 199.352791,214.973322 C199.401572,212.479226 201.740389,211.251575 203.439075,211.541614 C206.057339,211.990743 206.893193,214.337184 206.867607,215.717704 C206.790951,219.981013 202.19963,223.125682 197.908365,228.590287 L197.908365,228.590287 Z" id="path6820-0-2"></path>
                <path d="M103.931992,0.18019726 C94.7471604,13.2952321 84.9195105,20.8424636 84.7562423,31.0743901 C84.7014877,34.3876581 86.4905686,40.0191072 92.0944505,41.0970083 C95.7301544,41.7931046 100.735818,38.8467492 100.840349,32.8609173 C100.824421,31.6691915 102.1006,31.7001621 102.088654,33.333122 C101.917421,38.0546909 100.424712,43.5518908 97.915957,48.0266616 L109.948026,48.0266616 C107.439271,43.5518908 105.946562,38.0546909 105.775329,33.333122 C105.763383,31.7001621 107.039563,31.6691915 107.023634,32.8609173 C107.128166,38.8467492 112.133829,41.7931046 115.769533,41.0970083 C121.373415,40.0191072 123.162495,34.3876581 123.107741,31.0743901 C122.944473,20.8424636 113.116823,13.2952321 103.931992,0.18019726 L103.931992,0.18019726 Z" id="path6828-8-3"></path>
                <path d="M103.931992,245.813289 C94.7471604,232.698254 84.9195105,225.151023 84.7562423,214.919096 C84.7014877,211.605828 86.4905686,205.974379 92.0944505,204.896478 C95.7301544,204.200382 100.735818,207.146737 100.840349,213.132569 C100.824421,214.324295 102.1006,214.293324 102.088654,212.660364 C101.917421,207.938796 100.424712,202.441596 97.915957,197.966825 L109.948026,197.966825 C107.439271,202.441596 105.946562,207.938796 105.775329,212.660364 C105.763383,214.293324 107.039563,214.324295 107.023634,213.132569 C107.128166,207.146737 112.133829,204.200382 115.769533,204.896478 C121.373415,205.974379 123.162495,211.605828 123.107741,214.919096 C122.944473,225.151023 113.116823,232.698254 103.931992,245.813289 L103.931992,245.813289 Z" id="path6842-0-7"></path>
                <path d="M103.931992,99.0735061 C94.7471604,112.188541 84.9195105,119.735772 84.7562423,129.967699 C84.7014877,133.280967 86.4905686,138.912416 92.0944505,139.990317 C95.7301544,140.686413 100.735818,137.740058 100.840349,131.754226 C100.824421,130.5625 102.1006,130.593471 102.088654,132.226431 C101.917421,136.948 100.424712,142.4452 97.915957,146.91997 L109.948026,146.91997 C107.439271,142.4452 105.946562,136.948 105.775329,132.226431 C105.763383,130.593471 107.039563,130.5625 107.023634,131.754226 C107.128166,137.740058 112.133829,140.686413 115.769533,139.990317 C121.373415,138.912416 123.162495,133.280967 123.107741,129.967699 C122.944473,119.735772 113.116823,112.188541 103.931992,99.0735061 L103.931992,99.0735061 Z" id="path6844-7-0"></path>
            </g>
        </g>
    </g>
</svg>