<?xml version="1.0" encoding="UTF-8" standalone="no"?>
<svg width="227px" height="315px" viewBox="0 0 227 315" version="1.1" xmlns="http://www.w3.org/2000/svg" xmlns:xlink="http://www.w3.org/1999/xlink" xmlns:sketch="http://www.bohemiancoding.com/sketch/ns">
    <!-- Generator: Sketch 3.3.3 (12072) - http://www.bohemiancoding.com/sketch -->
    <title>Trim</title>
    <desc>Created with Sketch.</desc>
    <defs></defs>
    <g id="Page-1" stroke="none" stroke-width="1" fill="none" fill-rule="evenodd" sketch:type="MSPage">
        <g id="Hearts" sketch:type="MSLayerGroup" transform="translate(9.000000, 25.000000)" fill="#D40000">
            <g id="A" transform="translate(0.000000, 27.000000)" sketch:type="MSShapeGroup">
                <path d="M9.52010605,20.6854661 C9.52010605,20.6854661 7.30533324,17.5058892 4.31772647,13.7675652 C2.31898535,11.2659028 0.721147281,8.55706525 0.572513496,6.22382245 C0.402176989,3.55849528 2.01504768,0.884545786 4.93505943,0.754941676 C7.85337677,0.625427277 9.03786757,2.81002706 9.52010605,4.61115737 C10.0023445,2.81002706 11.1869349,0.625427277 14.1051547,0.754941676 C17.0251664,0.884545786 18.6381367,3.55849528 18.4677006,6.22382245 C18.3191664,8.55706525 16.7212287,11.2659028 14.7225872,13.7675652 C11.7348789,17.5058892 9.52010605,20.6854661 9.52010605,20.6854661 L9.52010605,20.6854661 Z" id="path9698-0-0"></path>
                <path d="M197.472152,192.000371 C197.472152,192.000371 195.257379,195.179948 192.26977,198.918272 C190.271029,201.419934 188.673191,204.128771 188.524557,206.462014 C188.354221,209.127341 189.967092,211.801291 192.887103,211.930895 C195.805423,212.060409 196.989913,209.87581 197.472152,208.074679 C197.95439,209.87581 199.138981,212.060409 202.057201,211.930895 C204.977208,211.801291 206.590179,209.127341 206.419742,206.462014 C206.271208,204.128771 204.673271,201.419934 202.674633,198.918272 C199.686925,195.179948 197.472152,192.000371 197.472152,192.000371 L197.472152,192.000371 Z" id="path9700-3-2"></path>
                <path d="M104.495719,130.266081 C104.495719,130.266081 99.8502411,122.635098 93.5837292,113.663099 C89.3915218,107.659105 86.0399444,101.157897 85.7283411,95.5581065 C85.3709431,89.1613233 88.7539794,82.7438465 94.8787247,82.4328146 C100.999788,82.1219621 103.484352,87.3650175 104.495719,91.6877263 C105.507185,87.3650175 107.991749,82.1219621 114.112813,82.4328146 C120.23756,82.7438465 123.620596,89.1613233 123.263198,95.5581065 C122.951595,101.157897 119.600017,107.659105 115.407808,113.663099 C109.141296,122.635098 104.495719,130.266081 104.495719,130.266081 L104.495719,130.266081 Z" id="path9714-6-6"></path>
            </g>
        </g>
    </g>
</svg>