<?xml version="1.0" encoding="UTF-8" standalone="no"?>
<svg width="227px" height="315px" viewBox="0 0 227 315" version="1.1" xmlns="http://www.w3.org/2000/svg" xmlns:xlink="http://www.w3.org/1999/xlink" xmlns:sketch="http://www.bohemiancoding.com/sketch/ns">
    <!-- Generator: Sketch 3.3.3 (12072) - http://www.bohemiancoding.com/sketch -->
    <title>Trim</title>
    <desc>Created with Sketch.</desc>
    <defs></defs>
    <g id="Page-1" stroke="none" stroke-width="1" fill="none" fill-rule="evenodd" sketch:type="MSPage">
        <g id="Hearts" sketch:type="MSLayerGroup" transform="translate(9.000000, 25.000000)" fill="#D40000">
            <g id="5" transform="translate(0.000000, 10.000000)" sketch:type="MSShapeGroup">
                <path d="M9.90744217,37.6854661 C9.90744217,37.6854661 7.69266936,34.5058892 4.70506259,30.7675652 C2.70632147,28.2659028 1.1084834,25.5570653 0.959849615,23.2238225 C0.789513108,20.5584953 2.4023838,17.8845458 5.32239555,17.7549417 C8.24071289,17.6254273 9.42520369,19.8100271 9.90744217,21.6111574 C10.3896807,19.8100271 11.574271,17.6254273 14.4924908,17.7549417 C17.4125025,17.8845458 19.0254728,20.5584953 18.8550367,23.2238225 C18.7065025,25.5570653 17.1085649,28.2659028 15.1099233,30.7675652 C12.122215,34.5058892 9.90744217,37.6854661 9.90744217,37.6854661 L9.90744217,37.6854661 Z" id="path9970-5-6"></path>
                <path d="M197.859488,209.000371 C197.859488,209.000371 195.644715,212.179948 192.657106,215.918272 C190.658365,218.419934 189.060527,221.128771 188.911893,223.462014 C188.741557,226.127341 190.354428,228.801291 193.274439,228.930895 C196.192759,229.060409 197.37725,226.87581 197.859488,225.074679 C198.341727,226.87581 199.526317,229.060409 202.444537,228.930895 C205.364544,228.801291 206.977515,226.127341 206.807079,223.462014 C206.658544,221.128771 205.060607,218.419934 203.061969,215.918272 C200.074261,212.179948 197.859488,209.000371 197.859488,209.000371 L197.859488,209.000371 Z" id="path9972-9-9"></path>
                <path d="M52.347662,48.3727714 C52.347662,48.3727714 47.7021843,40.7417886 41.4356724,31.7697891 C37.243463,25.7657955 33.8918856,19.2645873 33.5802823,13.6647966 C33.2228843,7.26801343 36.6059206,0.850536631 42.7306679,0.539504709 C48.8517317,0.228652211 51.3362952,5.47170764 52.347662,9.7944164 C53.3591284,5.47170764 55.8436919,0.228652211 61.9647557,0.539504709 C68.089503,0.850536631 71.4725393,7.26801343 71.1151413,13.6647966 C70.803538,19.2645873 67.4519606,25.7657955 63.2597512,31.7697891 C56.9932393,40.7417886 52.347662,48.3727714 52.347662,48.3727714 L52.347662,48.3727714 Z" id="path9978-0-4"></path>
                <path d="M155.41847,48.3727714 C155.41847,48.3727714 150.772992,40.7417886 144.50648,31.7697891 C140.314271,25.7657955 136.962693,19.2645873 136.65109,13.6647966 C136.293692,7.26801343 139.676728,0.850536631 145.801476,0.539504709 C151.922539,0.228652211 154.407103,5.47170764 155.41847,9.7944164 C156.429936,5.47170764 158.9145,0.228652211 165.035563,0.539504709 C171.160311,0.850536631 174.543347,7.26801343 174.185949,13.6647966 C173.874346,19.2645873 170.522768,25.7657955 166.330559,31.7697891 C160.064047,40.7417886 155.41847,48.3727714 155.41847,48.3727714 L155.41847,48.3727714 Z" id="path9984-9-5"></path>
                <path d="M103.883055,147.266081 C103.883055,147.266081 99.2375772,139.635098 92.9710653,130.663099 C88.7788579,124.659105 85.4272805,118.157897 85.1156772,112.558107 C84.7582792,106.161323 88.1413155,99.7438465 94.2660608,99.4328146 C100.387125,99.1219621 102.871688,104.365018 103.883055,108.687726 C104.894521,104.365018 107.379085,99.1219621 113.500149,99.4328146 C119.624896,99.7438465 123.007932,106.161323 122.650534,112.558107 C122.338931,118.157897 118.987354,124.659105 114.795144,130.663099 C108.528632,139.635098 103.883055,147.266081 103.883055,147.266081 L103.883055,147.266081 Z" id="path9986-7-3"></path>
                <path d="M155.41847,198.312936 C155.41847,198.312936 150.772992,205.943919 144.50648,214.915918 C140.314271,220.919912 136.962693,227.42112 136.65109,233.02091 C136.293692,239.417694 139.676728,245.83517 145.801476,246.146202 C151.922539,246.457055 154.407103,241.213999 155.41847,236.891291 C156.429936,241.213999 158.9145,246.457055 165.035563,246.146202 C171.160311,245.83517 174.543347,239.417694 174.185949,233.02091 C173.874346,227.42112 170.522768,220.919912 166.330559,214.915918 C160.064047,205.943919 155.41847,198.312936 155.41847,198.312936 L155.41847,198.312936 Z" id="path9998-0-9"></path>
                <path d="M52.347662,198.312936 C52.347662,198.312936 47.7021843,205.943919 41.4356724,214.915918 C37.243463,220.919912 33.8918856,227.42112 33.5802823,233.02091 C33.2228843,239.417694 36.6059206,245.83517 42.7306679,246.146202 C48.8517317,246.457055 51.3362952,241.213999 52.347662,236.891291 C53.3591284,241.213999 55.8436919,246.457055 61.9647557,246.146202 C68.089503,245.83517 71.4725393,239.417694 71.1151413,233.02091 C70.803538,227.42112 67.4519606,220.919912 63.2597512,214.915918 C56.9932393,205.943919 52.347662,198.312936 52.347662,198.312936 L52.347662,198.312936 Z" id="path10000-8-2"></path>
            </g>
        </g>
    </g>
</svg>