<?xml version="1.0" encoding="UTF-8" standalone="no"?>
<svg width="227px" height="315px" viewBox="0 0 227 315" version="1.1" xmlns="http://www.w3.org/2000/svg" xmlns:xlink="http://www.w3.org/1999/xlink" xmlns:sketch="http://www.bohemiancoding.com/sketch/ns">
    <!-- Generator: Sketch 3.3.3 (12072) - http://www.bohemiancoding.com/sketch -->
    <title>Trim</title>
    <desc>Created with Sketch.</desc>
    <defs></defs>
    <g id="Page-1" stroke="none" stroke-width="1" fill="none" fill-rule="evenodd" sketch:type="MSPage">
        <g id="Clubs" sketch:type="MSLayerGroup" transform="translate(10.000000, 23.000000)" fill="#000000">
            <g id="8" transform="translate(0.000000, 11.000000)" sketch:type="MSShapeGroup">
                <path d="M154.755841,0.635367271 C144.981369,0.847567695 140.598481,11.8525897 147.837461,20.3987068 C148.887358,21.6452093 148.995657,22.3605107 147.072863,21.1632083 C142.199076,17.9040018 132.853703,20.0466061 132.375104,30.010526 C131.784006,42.2874506 148.937957,45.8247576 152.158848,32.7701315 C152.328848,31.3928288 153.448345,31.4242288 153.178345,33.3793328 C152.884646,38.6857434 151.227451,43.6453533 148.949657,48.481863 L160.569925,48.481863 C158.292231,43.6453533 156.634936,38.6857434 156.341237,33.3793328 C156.071337,31.4242288 157.190734,31.3928288 157.360734,32.7701315 C160.581625,45.8247576 177.735576,42.2874506 177.144478,30.010526 C176.665979,20.0466061 167.320506,17.9040018 162.446619,21.1632083 C160.523925,22.3605107 160.632224,21.6452093 161.682121,20.3987068 C168.921101,11.8525897 164.538213,0.847567695 154.763841,0.635367271 C154.763841,0.63526727 154.763841,0.635367271 154.753841,0.635367271 L154.755841,0.635367271 Z" id="path147-0-8-1-6-13-2-2-3-8"></path>
                <path d="M51.6853317,0.635367271 C41.9108593,0.847567695 37.5279716,11.8525897 44.7669512,20.3987068 C45.8168482,21.6452093 45.9251479,22.3605107 44.0023534,21.1632083 C39.1285671,17.9040018 29.7832935,20.0466061 29.3045948,30.010526 C28.7135965,42.2874506 45.8674481,45.8247576 49.088239,32.7701315 C49.2583385,31.3928288 50.3777354,31.4242288 50.1078361,33.3793328 C49.814137,38.6857434 48.1569416,43.6453533 45.8791481,48.481863 L57.4993153,48.481863 C55.2217217,43.6453533 53.5644264,38.6857434 53.2707272,33.3793328 C53.000828,31.4242288 54.1202248,31.3928288 54.2902243,32.7701315 C57.5111153,45.8247576 74.6650669,42.2874506 74.0739686,30.010526 C73.5954699,20.0466061 64.2499963,17.9040018 59.37611,21.1632083 C57.4533154,22.3605107 57.5617151,21.6452093 58.6116122,20.3987068 C65.8505917,11.8525897 61.4677041,0.847567695 51.6933317,0.635367271 C51.6933317,0.63526727 51.6933317,0.635367271 51.6833317,0.635367271 L51.6853317,0.635367271 Z" id="path147-0-8-1-6-75-2-83-9-8-9"></path>
                <path d="M154.755841,246.268869 C144.981369,246.056618 140.598481,235.051586 147.837461,226.505549 C148.887358,225.259017 148.995657,224.543675 147.072863,225.741027 C142.199076,229.000224 132.853803,226.85765 132.375104,216.89373 C131.784106,204.616755 148.937957,201.079428 152.158848,214.134054 C152.328848,215.511417 153.448345,215.479987 153.178345,213.524893 C152.884646,208.218462 151.227451,203.258813 148.949657,198.422333 L160.569925,198.422333 C158.292231,203.258813 156.634936,208.218462 156.341237,213.524893 C156.071337,215.479987 157.190734,215.511417 157.360734,214.134054 C160.581625,201.079428 177.735576,204.616755 177.144478,216.89373 C176.665979,226.85765 167.320506,229.000224 162.446619,225.741027 C160.523925,224.543675 160.632224,225.259017 161.682121,226.505549 C168.921101,235.051586 164.538213,246.056608 154.763841,246.268869 C154.763841,246.268929 154.763841,246.268819 154.753841,246.268869 L154.755841,246.268869 Z" id="path147-0-8-1-6-7-5-5-7-62-3-0"></path>
                <path d="M51.6853317,246.268869 C41.9108593,246.056618 37.5279716,235.051586 44.7669512,226.505549 C45.8168482,225.259017 45.9251479,224.543675 44.0023534,225.741027 C39.1285671,229.000224 29.7832935,226.85765 29.3045948,216.89373 C28.7135965,204.616755 45.8674481,201.079428 49.088239,214.134054 C49.2583385,215.511417 50.3777354,215.479987 50.1078361,213.524893 C49.814137,208.218462 48.1569416,203.258813 45.8791481,198.422333 L57.4993153,198.422333 C55.2217217,203.258813 53.5644264,208.218462 53.2707272,213.524893 C53.000828,215.479987 54.1202248,215.511417 54.2902243,214.134054 C57.5111153,201.079428 74.6650669,204.616755 74.0739686,216.89373 C73.5954699,226.85765 64.2499963,229.000224 59.37611,225.741027 C57.4533154,224.543675 57.5617151,225.259017 58.6116122,226.505549 C65.8505917,235.051586 61.4677041,246.056608 51.6933317,246.268869 C51.6933317,246.268929 51.6933317,246.268819 51.6833317,246.268869 L51.6853317,246.268869 Z" id="path147-0-8-1-6-75-6-1-2-41-4-5"></path>
                <path d="M103.220786,50.0822662 C93.4463139,50.2944666 89.0635263,61.2995286 96.3024059,69.8455557 C97.3523029,71.0920882 97.4607026,71.8074396 95.537808,70.6100872 C90.6641218,67.3508907 81.3187481,69.493455 80.8401495,79.4573749 C80.2490511,91.7343395 97.4029028,95.2716665 100.623694,82.2170404 C100.793793,80.8396777 101.91319,80.8711077 101.643291,82.8262117 C101.349592,88.1326323 99.6923963,93.0922822 97.4146027,97.9287719 L109.03477,97.9287719 C106.757076,93.0922822 105.099881,88.1326323 104.806182,82.8262117 C104.536283,80.8711077 105.655679,80.8396777 105.825679,82.2170404 C109.04657,95.2716665 126.200522,91.7343395 125.609323,79.4573749 C125.130925,69.493455 115.785451,67.3508907 110.911565,70.6100872 C108.98877,71.8074396 109.09717,71.0920882 110.147067,69.8455557 C117.386046,61.2995286 113.003059,50.2944666 103.228786,50.0822662 C103.228786,50.0821662 103.228786,50.0822662 103.218786,50.0822662 L103.220786,50.0822662 Z" id="path147-0-8-1-6-2-00-7-5-5-3"></path>
                <path d="M154.755841,99.5288351 C144.981369,99.7410955 140.598481,110.746127 147.837461,119.292155 C148.887358,120.538687 148.995657,121.254039 147.072863,120.056686 C142.199076,116.79749 132.853703,118.940054 132.375104,128.903984 C131.784106,141.180948 148.937957,144.718275 152.158848,131.663649 C152.328848,130.286287 153.448245,130.317717 153.178345,132.272821 C152.884646,137.579241 151.227451,142.538891 148.949657,147.375381 L160.569925,147.375381 C158.292231,142.538891 156.634936,137.579241 156.341237,132.272821 C156.071337,130.317717 157.190734,130.286287 157.360734,131.663649 C160.581625,144.718275 177.735576,141.180948 177.144478,128.903984 C176.665979,118.940054 167.320506,116.79749 162.446619,120.056686 C160.523925,121.254039 160.632224,120.538687 161.682121,119.292155 C168.921101,110.746127 164.538213,99.7411055 154.763841,99.5288351 C154.763841,99.5287751 154.763841,99.5288851 154.753841,99.5288351 L154.755841,99.5288351 Z" id="path147-0-8-1-6-7-5-7-3-0-4-4-6"></path>
                <path d="M51.6853317,99.5288351 C41.9108593,99.7410955 37.5279716,110.746127 44.7669512,119.292155 C45.8168482,120.538687 45.9251479,121.254039 44.0023534,120.056686 C39.1285671,116.79749 29.7832935,118.940054 29.3046948,128.903984 C28.7135965,141.180948 45.8674481,144.718275 49.088239,131.663649 C49.2583385,130.286287 50.3777354,130.317717 50.1078361,132.272821 C49.814137,137.579241 48.1569416,142.538891 45.8791481,147.375381 L57.4993153,147.375381 C55.2217217,142.538891 53.5644264,137.579241 53.2707272,132.272821 C53.000828,130.317717 54.1202248,130.286287 54.2902243,131.663649 C57.5111153,144.718275 74.6650669,141.180948 74.0739686,128.903984 C73.5954699,118.940054 64.2499963,116.79749 59.37611,120.056686 C57.4533154,121.254039 57.5617151,120.538687 58.6116122,119.292155 C65.8505917,110.746127 61.4677041,99.7411055 51.6933317,99.5288351 C51.6933317,99.5287751 51.6933317,99.5288851 51.6833317,99.5288351 L51.6853317,99.5288351 Z" id="path147-0-8-1-6-75-6-6-5-3-2-4-8"></path>
                <path d="M103.220786,196.82211 C93.4464139,196.609859 89.0634263,185.604837 96.3025059,177.0588 C97.3524029,175.812268 97.4607026,175.096926 95.537908,176.294279 C90.6640218,179.553475 81.3186481,177.410901 80.8400495,167.446981 C80.2489511,155.169996 97.4030028,151.632669 100.623694,164.687305 C100.793893,166.064668 101.91319,166.033238 101.643291,164.078144 C101.349592,158.771714 99.6924963,153.812054 97.4147027,148.975574 L109.03477,148.975574 C106.757076,153.812054 105.099881,158.771714 104.806182,164.078144 C104.536383,166.033238 105.655679,166.064668 105.825679,164.687305 C109.04657,151.632669 126.200522,155.169996 125.609323,167.446981 C125.130925,177.410901 115.785451,179.553475 110.911565,176.294279 C108.98877,175.096926 109.09717,175.812268 110.147067,177.0588 C117.386046,185.604837 113.003159,196.609849 103.228886,196.82211 C103.228886,196.82217 103.228886,196.82206 103.218886,196.82211 L103.220786,196.82211 Z" id="path147-0-8-1-6-2-0-8-6-42-9-6"></path>
                <path d="M197.202421,228.631353 C201.11211,228.542953 202.865405,223.957484 199.969814,220.396647 C199.549715,219.877246 199.506415,219.579185 200.275613,220.078086 C202.225107,221.436089 205.963297,220.543347 206.154696,216.391709 C206.391195,211.276299 199.529515,209.802416 198.241218,215.241846 C198.173219,215.815758 197.72542,215.802658 197.83342,214.988026 C197.950919,212.777022 198.613717,210.710497 199.524815,208.695293 L194.877028,208.695293 C195.788125,210.710497 196.450923,212.777022 196.568423,214.988026 C196.676423,215.802658 196.228624,215.815758 196.160624,215.241846 C194.872328,209.802416 188.010747,211.276299 188.247147,216.391709 C188.438546,220.543347 192.176736,221.436089 194.12623,220.078086 C194.895428,219.579185 194.852128,219.877246 194.432129,220.396647 C191.536537,223.957484 193.289732,228.542903 197.199421,228.631353 C197.199421,228.631373 197.199421,228.631333 197.199421,228.631353 L197.202421,228.631353 Z" id="path147-6-9-8-7-0-5-6-1-6-9"></path>
                <path d="M9.24795136,17.4440009 C5.33816239,17.5320011 3.58496733,22.1179102 6.48055916,25.6787174 C6.90055798,26.1981184 6.94375786,26.496119 6.17476003,25.997218 C4.22506553,24.6392153 0.487076066,25.5320171 0.295576606,29.6836254 C0.0591772731,34.7990356 6.92075792,36.2729385 8.20905429,30.8335277 C8.2770541,30.2596265 8.72495284,30.2727265 8.61685314,31.0873282 C8.49935347,33.2983326 7.83655534,35.3648367 6.92545791,37.3800408 L11.5733448,37.3800408 C10.6622474,35.3648367 9.99934924,33.2983326 9.88184957,31.0873282 C9.77394988,30.2727265 10.2216486,30.2596265 10.2896484,30.8335277 C11.5779448,36.2729385 18.4396254,34.7990356 18.2031261,29.6836254 C18.0117266,25.5320171 14.2736372,24.6392153 12.3240427,25.997218 C11.5549449,26.496119 11.5982447,26.1981184 12.0181435,25.6787174 C14.9138354,22.1179102 13.1605403,17.5325011 9.25095135,17.4440009 L9.25095135,17.4440009 L9.24795136,17.4440009 Z" id="path147-6-9-8-7-4-5-62-4-0-0"></path>
            </g>
        </g>
    </g>
</svg>