<?xml version="1.0" encoding="UTF-8" standalone="no"?>
<svg width="227px" height="315px" viewBox="0 0 227 315" version="1.1" xmlns="http://www.w3.org/2000/svg" xmlns:xlink="http://www.w3.org/1999/xlink" xmlns:sketch="http://www.bohemiancoding.com/sketch/ns">
    <!-- Generator: Sketch 3.3.3 (12072) - http://www.bohemiancoding.com/sketch -->
    <title>Trim</title>
    <desc>Created with Sketch.</desc>
    <defs></defs>
    <g id="Page-1" stroke="none" stroke-width="1" fill="none" fill-rule="evenodd" sketch:type="MSPage">
        <g id="Diamonds" sketch:type="MSLayerGroup" transform="translate(11.000000, 25.000000)" fill="#D40000">
            <g id="2" transform="translate(1.000000, 9.000000)" sketch:type="MSShapeGroup">
                <path d="M101.37514,47.9902339 C96.2120864,39.4528124 90.780219,31.1551221 83.9921642,24.0669531 C90.780219,16.9788837 96.2120864,8.68119336 101.37514,0.14367218 C106.538193,8.68119336 111.97006,16.9788837 118.758115,24.0669531 C111.97006,31.1551221 106.538193,39.4528124 101.37514,47.9902339 L101.37514,47.9902339 Z" id="path6516-8"></path>
                <path d="M7.39974014,37.3029049 C5.24846884,33.7457154 2.98518991,30.2883019 0.15683541,27.3348742 C2.98518991,24.3815442 5.24846884,20.9241327 7.39974014,17.3668405 C9.55101144,20.9241327 11.8142904,24.3815442 14.6426449,27.3348742 C11.8142904,30.2883019 9.55101144,33.7457154 7.39974014,37.3029049 L7.39974014,37.3029049 Z" id="path6518-2"></path>
                <path d="M195.351256,228.554227 C193.199984,224.997034 190.936705,221.539622 188.108351,218.586193 C190.936705,215.632864 193.199984,212.175451 195.351256,208.618159 C197.502527,212.175451 199.765806,215.632864 202.59416,218.586193 C199.765806,221.539622 197.502527,224.997034 195.351256,228.554227 L195.351256,228.554227 Z" id="path6522-0"></path>
                <path d="M101.37514,245.777264 C96.2120864,237.239843 90.780209,228.942153 83.9921642,221.853984 C90.780209,214.765914 96.2120864,206.468224 101.37514,197.930703 C106.538193,206.468224 111.97006,214.765914 118.758115,221.853984 C111.97006,228.942153 106.538193,237.239843 101.37514,245.777264 L101.37514,245.777264 Z" id="path6538-6"></path>
            </g>
        </g>
    </g>
</svg>