<?xml version="1.0" encoding="UTF-8" standalone="no"?>
<svg width="227px" height="315px" viewBox="0 0 227 315" version="1.1" xmlns="http://www.w3.org/2000/svg" xmlns:xlink="http://www.w3.org/1999/xlink" xmlns:sketch="http://www.bohemiancoding.com/sketch/ns">
    <!-- Generator: Sketch 3.3.3 (12072) - http://www.bohemiancoding.com/sketch -->
    <title>Trim</title>
    <desc>Created with Sketch.</desc>
    <defs></defs>
    <g id="Page-1" stroke="none" stroke-width="1" fill="none" fill-rule="evenodd" sketch:type="MSPage">
        <g id="Hearts" sketch:type="MSLayerGroup" transform="translate(9.000000, 25.000000)" fill="#D40000">
            <g id="10" transform="translate(1.000000, 10.000000)" sketch:type="MSShapeGroup">
                <path d="M51.5775317,114.301642 C51.5775317,114.301642 46.9320539,106.670659 40.6655421,97.6986593 C36.4733327,91.6946657 33.1217553,85.1934576 32.810152,79.5936669 C32.4527539,73.1968827 35.8357903,66.7794059 41.9605376,66.468374 C48.0816014,66.1575215 50.5661649,71.4005769 51.5775317,75.7232857 C52.588998,71.4005769 55.0735616,66.1575215 61.1946254,66.468374 C67.3193727,66.7794059 70.702409,73.1968827 70.345011,79.5936669 C70.0334076,85.1934576 66.6818303,91.6946657 62.4896209,97.6986593 C56.223109,106.670659 51.5775317,114.301642 51.5775317,114.301642 L51.5775317,114.301642 Z" id="path10308-5-1"></path>
                <path d="M9.13731183,37.6854661 C9.13731183,37.6854661 6.92253902,34.5058892 3.93493226,30.7675652 C1.93619114,28.2659028 0.338353064,25.5570653 0.18971928,23.2238225 C0.0193827722,20.5584953 1.63225346,17.8845458 4.55226521,17.7549417 C7.47058255,17.6254273 8.65507335,19.8100271 9.13731183,21.6111574 C9.61955032,19.8100271 10.8041407,17.6254273 13.7223604,17.7549417 C16.6423722,17.8845458 18.2553424,20.5584953 18.0849064,23.2238225 C17.9363721,25.5570653 16.3384345,28.2659028 14.339793,30.7675652 C11.3520846,34.5058892 9.13731183,37.6854661 9.13731183,37.6854661 L9.13731183,37.6854661 Z" id="path10310-7-8"></path>
                <path d="M197.089358,209.000371 C197.089358,209.000371 194.874585,212.179948 191.886976,215.918272 C189.888235,218.419934 188.290397,221.128771 188.141763,223.462014 C187.971427,226.127341 189.584297,228.801291 192.504309,228.930895 C195.422628,229.060409 196.607119,226.87581 197.089358,225.074679 C197.571596,226.87581 198.756187,229.060409 201.674406,228.930895 C204.594414,228.801291 206.207384,226.127341 206.036948,223.462014 C205.888414,221.128771 204.290476,218.419934 202.291839,215.918272 C199.304131,212.179948 197.089358,209.000371 197.089358,209.000371 L197.089358,209.000371 Z" id="path10312-3-5"></path>
                <path d="M103.11293,90.8768091 C103.11293,90.8768091 98.4674518,83.2458254 92.20094,74.2738269 C88.0087305,68.2698332 84.6571532,61.7686251 84.3455499,56.1688344 C83.9881518,49.7720512 87.3711882,43.3545744 93.4959355,43.0435425 C99.6169993,42.73269 102.101563,47.9757454 103.11293,52.2984542 C104.124396,47.9757454 106.608959,42.73269 112.730023,43.0435425 C118.854771,43.3545744 122.237807,49.7720512 121.880409,56.1688344 C121.568806,61.7686251 118.217228,68.2698332 114.025019,74.2738269 C107.758507,83.2458254 103.11293,90.8768091 103.11293,90.8768091 L103.11293,90.8768091 Z" id="path10314-8-8"></path>
                <path d="M51.5775317,48.3727714 C51.5775317,48.3727714 46.9320539,40.7417886 40.6655421,31.7697891 C36.4733327,25.7657955 33.1217553,19.2645873 32.810152,13.6647966 C32.4527539,7.26801343 35.8357903,0.850536631 41.9605376,0.539504709 C48.0816014,0.228652211 50.5661649,5.47170764 51.5775317,9.7944164 C52.588998,5.47170764 55.0735616,0.228652211 61.1946254,0.539504709 C67.3193727,0.850536631 70.702409,7.26801343 70.345011,13.6647966 C70.0334076,19.2645873 66.6818303,25.7657955 62.4896209,31.7697891 C56.223109,40.7417886 51.5775317,48.3727714 51.5775317,48.3727714 L51.5775317,48.3727714 Z" id="path10318-3-7"></path>
                <path d="M154.648339,114.301642 C154.648339,114.301642 150.002862,106.670659 143.73635,97.6986593 C139.54414,91.6946657 136.192563,85.1934576 135.88096,79.5936669 C135.523562,73.1968827 138.906598,66.7794059 145.031345,66.468374 C151.152409,66.1575215 153.636973,71.4005769 154.648339,75.7232857 C155.659806,71.4005769 158.144369,66.1575215 164.265433,66.468374 C170.39018,66.7794059 173.773217,73.1968827 173.415819,79.5936669 C173.104215,85.1934576 169.752638,91.6946657 165.560429,97.6986593 C159.293917,106.670659 154.648339,114.301642 154.648339,114.301642 L154.648339,114.301642 Z" id="path10322-4-6"></path>
                <path d="M154.648339,48.3727714 C154.648339,48.3727714 150.002862,40.7417886 143.73635,31.7697891 C139.54414,25.7657955 136.192563,19.2645873 135.88096,13.6647966 C135.523562,7.26801343 138.906598,0.850536631 145.031345,0.539504709 C151.152409,0.228652211 153.636973,5.47170764 154.648339,9.7944164 C155.659806,5.47170764 158.144369,0.228652211 164.265433,0.539504709 C170.39018,0.850536631 173.773217,7.26801343 173.415819,13.6647966 C173.104215,19.2645873 169.752638,25.7657955 165.560429,31.7697891 C159.293917,40.7417886 154.648339,48.3727714 154.648339,48.3727714 L154.648339,48.3727714 Z" id="path10324-9-8"></path>
                <path d="M103.112931,155.808887 C103.112931,155.808887 98.4674528,163.43987 92.200941,172.41188 C88.0087315,178.415873 84.6571542,184.917081 84.3455509,190.516862 C83.9881528,196.913645 87.3711892,203.331122 93.4959365,203.642154 C99.6170003,203.953006 102.101564,198.709951 103.112931,194.387242 C104.124397,198.709951 106.60896,203.953006 112.730024,203.642154 C118.854772,203.331122 122.237808,196.913645 121.88041,190.516862 C121.568807,184.917081 118.217229,178.415873 114.02502,172.41188 C107.758508,163.43987 103.112931,155.808887 103.112931,155.808887 L103.112931,155.808887 Z" id="path10332-8-6"></path>
                <path d="M154.648339,132.384057 C154.648339,132.384057 150.002862,140.015039 143.73635,148.987039 C139.54414,154.991032 136.192563,161.492241 135.88096,167.092031 C135.523562,173.488815 138.906598,179.906292 145.031345,180.217324 C151.152409,180.528176 153.636973,175.285121 154.648339,170.962412 C155.659806,175.285121 158.144369,180.528176 164.265433,180.217324 C170.39018,179.906292 173.773217,173.488815 173.415819,167.092031 C173.104215,161.492241 169.752638,154.991032 165.560429,148.987039 C159.293917,140.015039 154.648339,132.384057 154.648339,132.384057 L154.648339,132.384057 Z" id="path10334-5-0"></path>
                <path d="M51.5775317,132.384057 C51.5775317,132.384057 46.9320539,140.015039 40.6655421,148.987039 C36.4733327,154.991032 33.1217553,161.492241 32.810152,167.092031 C32.4527539,173.488815 35.8357903,179.906292 41.9605376,180.217324 C48.0816014,180.528176 50.5661649,175.285121 51.5775317,170.962412 C52.588998,175.285121 55.0735616,180.528176 61.1946254,180.217324 C67.3193727,179.906292 70.702409,173.488815 70.345011,167.092031 C70.0334076,161.492241 66.6818303,154.991032 62.4896209,148.987039 C56.223109,140.015039 51.5775317,132.384057 51.5775317,132.384057 L51.5775317,132.384057 Z" id="path10336-3-5"></path>
                <path d="M154.648339,198.312936 C154.648339,198.312936 150.002862,205.943919 143.73635,214.915918 C139.54414,220.919912 136.192563,227.42112 135.88096,233.02091 C135.523562,239.417694 138.906598,245.83517 145.031345,246.146202 C151.152409,246.457055 153.636973,241.213999 154.648339,236.891291 C155.659806,241.213999 158.144369,246.457055 164.265433,246.146202 C170.39018,245.83517 173.773217,239.417694 173.415819,233.02091 C173.104215,227.42112 169.752638,220.919912 165.560429,214.915918 C159.293917,205.943919 154.648339,198.312936 154.648339,198.312936 L154.648339,198.312936 Z" id="path10338-2-9"></path>
                <path d="M51.5775317,198.312936 C51.5775317,198.312936 46.9320539,205.943919 40.6655421,214.915918 C36.4733327,220.919912 33.1217553,227.42112 32.810152,233.02091 C32.4527539,239.417694 35.8357903,245.83517 41.9605376,246.146202 C48.0816014,246.457055 50.5661649,241.213999 51.5775317,236.891291 C52.588998,241.213999 55.0735616,246.457055 61.1946254,246.146202 C67.3193727,245.83517 70.702409,239.417694 70.345011,233.02091 C70.0334076,227.42112 66.6818303,220.919912 62.4896209,214.915918 C56.223109,205.943919 51.5775317,198.312936 51.5775317,198.312936 L51.5775317,198.312936 Z" id="path10340-9-7"></path>
            </g>
        </g>
    </g>
</svg>