<?xml version="1.0" encoding="UTF-8" standalone="no"?>
<svg width="227px" height="315px" viewBox="0 0 227 315" version="1.1" xmlns="http://www.w3.org/2000/svg" xmlns:xlink="http://www.w3.org/1999/xlink" xmlns:sketch="http://www.bohemiancoding.com/sketch/ns">
    <!-- Generator: Sketch 3.3.3 (12072) - http://www.bohemiancoding.com/sketch -->
    <title>Trim</title>
    <desc>Created with Sketch.</desc>
    <defs></defs>
    <g id="Page-1" stroke="none" stroke-width="1" fill="none" fill-rule="evenodd" sketch:type="MSPage">
        <g id="Hearts" sketch:type="MSLayerGroup" transform="translate(9.000000, 25.000000)" fill="#D40000">
            <g id="3" transform="translate(1.000000, 10.000000)" sketch:type="MSShapeGroup">
                <path d="M9.21386869,37.6854661 C9.21386869,37.6854661 6.99909588,34.5058892 4.01148911,30.7675652 C2.01274799,28.2659028 0.414909916,25.5570653 0.266276132,23.2238225 C0.0959396244,20.5584953 1.70881032,17.8845458 4.62882206,17.7549417 C7.5471394,17.6254273 8.73163021,19.8100271 9.21386869,21.6111574 C9.69610717,19.8100271 10.8806975,17.6254273 13.7989173,17.7549417 C16.718929,17.8845458 18.3318993,20.5584953 18.1614632,23.2238225 C18.012929,25.5570653 16.4149914,28.2659028 14.4163498,30.7675652 C11.4286415,34.5058892 9.21386869,37.6854661 9.21386869,37.6854661 L9.21386869,37.6854661 Z" id="path9834-5-2"></path>
                <path d="M197.165915,209.000371 C197.165915,209.000371 194.951142,212.179948 191.963533,215.918272 C189.964792,218.419934 188.366954,221.128771 188.21832,223.462014 C188.047984,226.127341 189.660854,228.801291 192.580866,228.930895 C195.499185,229.060409 196.683676,226.87581 197.165915,225.074679 C197.648153,226.87581 198.832743,229.060409 201.750963,228.930895 C204.670971,228.801291 206.283941,226.127341 206.113505,223.462014 C205.964971,221.128771 204.367033,218.419934 202.368396,215.918272 C199.380687,212.179948 197.165915,209.000371 197.165915,209.000371 L197.165915,209.000371 Z" id="path9836-5-8"></path>
                <path d="M103.189491,48.3727714 C103.189491,48.3727714 98.5440137,40.7417886 92.2775018,31.7697891 C88.0852924,25.7657955 84.733715,19.2645873 84.4221117,13.6647966 C84.0647137,7.26801343 87.44775,0.850536631 93.5724973,0.539504709 C99.6935611,0.228652211 102.178125,5.47170764 103.189491,9.7944164 C104.200958,5.47170764 106.685521,0.228652211 112.806585,0.539504709 C118.931332,0.850536631 122.314369,7.26801343 121.956971,13.6647966 C121.645367,19.2645873 118.29379,25.7657955 114.101581,31.7697891 C107.835069,40.7417886 103.189491,48.3727714 103.189491,48.3727714 L103.189491,48.3727714 Z" id="path9840-3-6"></path>
                <path d="M103.189481,147.266081 C103.189481,147.266081 98.5440037,139.635098 92.2774918,130.663099 C88.0852844,124.659105 84.7337071,118.157897 84.4221037,112.558107 C84.0647057,106.161323 87.447742,99.7438465 93.5724873,99.4328146 C99.6935511,99.1219621 102.178115,104.365018 103.189481,108.687726 C104.200948,104.365018 106.685511,99.1219621 112.806575,99.4328146 C118.931322,99.7438465 122.314359,106.161323 121.956961,112.558107 C121.645357,118.157897 118.29378,124.659105 114.101571,130.663099 C107.835059,139.635098 103.189481,147.266081 103.189481,147.266081 L103.189481,147.266081 Z" id="path9850-2-3"></path>
                <path d="M103.189491,198.312936 C103.189491,198.312936 98.5440137,205.943919 92.2775018,214.915918 C88.0852954,220.919912 84.733718,227.42112 84.4221147,233.02091 C84.0647166,239.417694 87.447753,245.83517 93.5724973,246.146202 C99.6935611,246.457055 102.178125,241.213999 103.189491,236.891291 C104.200958,241.213999 106.685521,246.457055 112.806585,246.146202 C118.931332,245.83517 122.314369,239.417694 121.956971,233.02091 C121.645367,227.42112 118.29379,220.919912 114.101581,214.915918 C107.835069,205.943919 103.189491,198.312936 103.189491,198.312936 L103.189491,198.312936 Z" id="path9854-8-0"></path>
            </g>
        </g>
    </g>
</svg>