<?xml version="1.0" encoding="UTF-8" standalone="no"?>
<svg width="227px" height="315px" viewBox="0 0 227 315" version="1.1" xmlns="http://www.w3.org/2000/svg" xmlns:xlink="http://www.w3.org/1999/xlink" xmlns:sketch="http://www.bohemiancoding.com/sketch/ns">
    <!-- Generator: Sketch 3.3.3 (12072) - http://www.bohemiancoding.com/sketch -->
    <title>Trim</title>
    <desc>Created with Sketch.</desc>
    <defs></defs>
    <g id="Page-1" stroke="none" stroke-width="1" fill="none" fill-rule="evenodd" sketch:type="MSPage">
        <g id="Hearts" sketch:type="MSLayerGroup" transform="translate(9.000000, 25.000000)" fill="#D40000">
            <g id="9" transform="translate(1.000000, 10.000000)" sketch:type="MSShapeGroup">
                <path d="M51.7306454,114.301642 C51.7306454,114.301642 47.0851676,106.670659 40.8186558,97.6986593 C36.6264464,91.6946657 33.274869,85.1934576 32.9632657,79.5936669 C32.6058676,73.1968827 35.988904,66.7794059 42.1136513,66.468374 C48.2347151,66.1575215 50.7192786,71.4005769 51.7306454,75.7232857 C52.7421117,71.4005769 55.2266753,66.1575215 61.3477391,66.468374 C67.4724864,66.7794059 70.8555227,73.1968827 70.4981247,79.5936669 C70.1865213,85.1934576 66.834944,91.6946657 62.6427346,97.6986593 C56.3762227,106.670659 51.7306454,114.301642 51.7306454,114.301642 L51.7306454,114.301642 Z" id="path10240-7-9"></path>
                <path d="M9.29042554,37.6854661 C9.29042554,37.6824757 7.07565273,34.5058892 4.08804596,30.7675652 C2.08930484,28.2659028 0.491466769,25.5570653 0.342832984,23.2238225 C0.172496477,20.5584953 1.78536717,17.8845458 4.70537891,17.7549417 C7.62369625,17.6254273 8.80818706,19.8100271 9.29042554,21.6111574 C9.77266402,19.8100271 10.9572544,17.6254273 13.8754742,17.7549417 C16.7954859,17.8845458 18.4084561,20.5584953 18.2380201,23.2238225 C18.0894859,25.5570653 16.4915482,28.2659028 14.4929067,30.7675652 C11.5051983,34.5058892 9.29231706,37.6828744 9.29042554,37.6854661 L9.29042554,37.6854661 Z" id="path10242-3-8"></path>
                <path d="M197.242471,209.000371 C197.242471,209.000371 195.027699,212.179948 192.04009,215.918272 C190.041349,218.419934 188.443511,221.128771 188.294877,223.462014 C188.12454,226.127341 189.737411,228.801291 192.657423,228.930895 C195.575742,229.060409 196.760233,226.87581 197.242471,225.074679 C197.72471,226.87581 198.9093,229.060409 201.82752,228.930895 C204.747528,228.801291 206.360498,226.127341 206.190062,223.462014 C206.041528,221.128771 204.44359,218.419934 202.444953,215.918272 C199.457244,212.179948 197.242471,209.000371 197.242471,209.000371 L197.242471,209.000371 Z" id="path10244-4-5"></path>
                <path d="M51.7306454,48.3727714 C51.7306454,48.3727714 47.0851676,40.7417886 40.8186558,31.7697891 C36.6264464,25.7657955 33.274869,19.2645873 32.9632657,13.6647966 C32.6058676,7.26801343 35.988904,0.850536631 42.1136513,0.539504709 C48.2347151,0.228652211 50.7192786,5.47170764 51.7306454,9.7944164 C52.7421117,5.47170764 55.2266753,0.228652211 61.3477391,0.539504709 C67.4724864,0.850536631 70.8555227,7.26801343 70.4981247,13.6647966 C70.1865213,19.2645873 66.834944,25.7657955 62.6427346,31.7697891 C56.3762227,40.7417886 51.7306454,48.3727714 51.7306454,48.3727714 L51.7306454,48.3727714 Z" id="path10250-9-0"></path>
                <path d="M154.801453,114.301642 C154.801453,114.301642 150.155975,106.670659 143.889464,97.6986593 C139.697254,91.6946657 136.345677,85.1934576 136.034073,79.5936669 C135.676675,73.1968827 139.059712,66.7794059 145.184459,66.468374 C151.305523,66.1575215 153.790086,71.4005769 154.801453,75.7232857 C155.812919,71.4005769 158.297483,66.1575215 164.418547,66.468374 C170.543294,66.7794059 173.92633,73.1968827 173.568932,79.5936669 C173.257329,85.1934576 169.905752,91.6946657 165.713542,97.6986593 C159.44703,106.670659 154.801453,114.301642 154.801453,114.301642 L154.801453,114.301642 Z" id="path10254-7-3"></path>
                <path d="M154.801453,48.3727714 C154.801453,48.3727714 150.155975,40.7417886 143.889464,31.7697891 C139.697254,25.7657955 136.345677,19.2645873 136.034073,13.6647966 C135.676675,7.26801343 139.059712,0.850536631 145.184459,0.539504709 C151.305523,0.228652211 153.790086,5.47170764 154.801453,9.7944164 C155.812919,5.47170764 158.297483,0.228652211 164.418547,0.539504709 C170.543294,0.850536631 173.92633,7.26801343 173.568932,13.6647966 C173.257329,19.2645873 169.905752,25.7657955 165.713542,31.7697891 C159.44703,40.7417886 154.801453,48.3727714 154.801453,48.3727714 L154.801453,48.3727714 Z" id="path10256-4-7"></path>
                <path d="M103.266038,147.266081 C103.266038,147.266081 98.6205606,139.635098 92.3540487,130.663099 C88.1618413,124.659105 84.8102639,118.157897 84.4986606,112.558107 C84.1412626,106.161323 87.5242989,99.7438465 93.6490442,99.4328146 C99.770108,99.1219621 102.254672,104.365018 103.266038,108.687726 C104.277505,104.365018 106.762068,99.1219621 112.883132,99.4328146 C119.007879,99.7438465 122.390916,106.161323 122.033518,112.558107 C121.721914,118.157897 118.370337,124.659105 114.178127,130.663099 C107.911616,139.635098 103.266038,147.266081 103.266038,147.266081 L103.266038,147.266081 Z" id="path10258-5-9"></path>
                <path d="M154.801453,132.384057 C154.801453,132.384057 150.155975,140.015039 143.889464,148.987039 C139.697254,154.991032 136.345677,161.492241 136.034073,167.092031 C135.676675,173.488815 139.059712,179.906292 145.184459,180.217324 C151.305523,180.528176 153.790086,175.285121 154.801453,170.962412 C155.812919,175.285121 158.297483,180.528176 164.418547,180.217324 C170.543294,179.906292 173.92633,173.488815 173.568932,167.092031 C173.257329,161.492241 169.905752,154.991032 165.713542,148.987039 C159.44703,140.015039 154.801453,132.384057 154.801453,132.384057 L154.801453,132.384057 Z" id="path10266-8-9"></path>
                <path d="M51.7306454,132.384057 C51.7306454,132.384057 47.0851676,140.015039 40.8186558,148.987039 C36.6264464,154.991032 33.274869,161.492241 32.9632657,167.092031 C32.6058676,173.488815 35.988904,179.906292 42.1136513,180.217324 C48.2347151,180.528176 50.7192786,175.285121 51.7306454,170.962412 C52.7421117,175.285121 55.2266753,180.528176 61.3477391,180.217324 C67.4724864,179.906292 70.8555227,173.488815 70.4981247,167.092031 C70.1865213,161.492241 66.834944,154.991032 62.6427346,148.987039 C56.3762227,140.015039 51.7306454,132.384057 51.7306454,132.384057 L51.7306454,132.384057 Z" id="path10268-2-7"></path>
                <path d="M154.801453,198.312936 C154.801453,198.312936 150.155975,205.943919 143.889464,214.915918 C139.697254,220.919912 136.345677,227.42112 136.034073,233.02091 C135.676675,239.417694 139.059712,245.83517 145.184459,246.146202 C151.305523,246.457055 153.790086,241.213999 154.801453,236.891291 C155.812919,241.213999 158.297483,246.457055 164.418547,246.146202 C170.543294,245.83517 173.92633,239.417694 173.568932,233.02091 C173.257329,227.42112 169.905752,220.919912 165.713542,214.915918 C159.44703,205.943919 154.801453,198.312936 154.801453,198.312936 L154.801453,198.312936 Z" id="path10270-1-4"></path>
                <path d="M51.7306454,198.312936 C51.7306454,198.312936 47.0851676,205.943919 40.8186558,214.915918 C36.6264464,220.919912 33.274869,227.42112 32.9632657,233.02091 C32.6058676,239.417694 35.988904,245.83517 42.1136513,246.146202 C48.2347151,246.457055 50.7192786,241.213999 51.7306454,236.891291 C52.7421117,241.213999 55.2266753,246.457055 61.3477391,246.146202 C67.4724864,245.83517 70.8555227,239.417694 70.4981247,233.02091 C70.1865213,227.42112 66.834944,220.919912 62.6427346,214.915918 C56.3762227,205.943919 51.7306454,198.312936 51.7306454,198.312936 L51.7306454,198.312936 Z" id="path10272-0-7"></path>
            </g>
        </g>
    </g>
</svg>