<?xml version="1.0" encoding="UTF-8" standalone="no"?>
<svg width="227px" height="315px" viewBox="0 0 227 315" version="1.1" xmlns="http://www.w3.org/2000/svg" xmlns:xlink="http://www.w3.org/1999/xlink" xmlns:sketch="http://www.bohemiancoding.com/sketch/ns">
    <!-- Generator: Sketch 3.3.3 (12072) - http://www.bohemiancoding.com/sketch -->
    <title>Trim</title>
    <desc>Created with Sketch.</desc>
    <defs></defs>
    <g id="Page-1" stroke="none" stroke-width="1" fill="none" fill-rule="evenodd" sketch:type="MSPage">
        <g id="Diamonds" sketch:type="MSLayerGroup" transform="translate(11.000000, 25.000000)" fill="#D40000">
            <g id="6" transform="translate(1.000000, 9.000000)" sketch:type="MSShapeGroup">
                <path d="M7.30040567,37.3029049 C5.14915428,33.7457154 2.88580566,30.2883019 0.0574909818,27.3348742 C2.88580566,24.3815442 5.14915428,20.9241327 7.30040567,17.3668405 C9.45165705,20.9241327 11.7149061,24.3815442 14.5433204,27.3348742 C11.7149061,30.2883019 9.45165705,33.7457154 7.30040567,37.3029049 L7.30040567,37.3029049 Z" id="path6790-5"></path>
                <path d="M152.811073,47.9902339 C147.64803,39.4528124 142.216093,31.1551221 135.428038,24.0669531 C142.216093,16.9788837 147.64803,8.68119336 152.811073,0.14367218 C157.974117,8.68119336 163.405954,16.9788837 170.194009,24.0669531 C163.405954,31.1551221 157.974117,39.4528124 152.811073,47.9902339 L152.811073,47.9902339 Z" id="path6792-5"></path>
                <path d="M195.251921,228.554227 C193.10067,224.997034 190.837321,221.539622 188.009007,218.586193 C190.837321,215.632864 193.10067,212.175451 195.251921,208.618159 C197.403173,212.175451 199.666422,215.632864 202.494836,218.586193 C199.666422,221.539622 197.403173,224.997034 195.251921,228.554227 L195.251921,228.554227 Z" id="path6794-1"></path>
                <path d="M49.7405566,47.9902339 C44.5775135,39.4528124 39.1455764,31.1551221 32.3575216,24.0669531 C39.1455764,16.9788837 44.5775135,8.68119336 49.7405566,0.14367218 C54.9035998,8.68119336 60.3354374,16.9788837 67.1234922,24.0669531 C60.3354374,31.1551221 54.9035998,39.4528124 49.7405566,47.9902339 L49.7405566,47.9902339 Z" id="path6796-2"></path>
                <path d="M49.7405566,146.851508 C44.5775135,138.314086 39.1455764,130.016396 32.3575216,122.928227 C39.1455764,115.840157 44.5775135,107.542467 49.7405566,99.0049458 C54.9035998,107.542467 60.3354374,115.840157 67.1234922,122.928227 C60.3354374,130.016396 54.9035998,138.314086 49.7405566,146.851508 L49.7405566,146.851508 Z" id="path6806-6"></path>
                <path d="M152.811073,146.867028 C147.64803,138.329606 142.216093,130.031916 135.428038,122.943747 C142.216093,115.855678 147.64803,107.557987 152.811073,99.020466 C157.974117,107.557987 163.405954,115.855678 170.194009,122.943747 C163.405954,130.031916 157.974117,138.329606 152.811073,146.867028 L152.811073,146.867028 Z" id="path6808-6"></path>
                <path d="M49.7405566,245.782318 C44.5775135,237.244897 39.1455764,228.947206 32.3575216,221.859037 C39.1455764,214.770968 44.5775135,206.473278 49.7405566,197.935756 C54.9035998,206.473278 60.3354374,214.770968 67.1234922,221.859037 C60.3354374,228.947206 54.9035998,237.244897 49.7405566,245.782318 L49.7405566,245.782318 Z" id="path6812-0"></path>
                <path d="M152.811073,245.789236 C147.64803,237.251815 142.216093,228.954124 135.428038,221.865955 C142.216093,214.777886 147.64803,206.480195 152.811073,197.942674 C157.974117,206.480195 163.405954,214.777886 170.194009,221.865955 C163.405954,228.954124 157.974117,237.251815 152.811073,245.789236 L152.811073,245.789236 Z" id="path6814-4"></path>
            </g>
        </g>
    </g>
</svg>