<?xml version="1.0" encoding="UTF-8" standalone="no"?>
<svg width="20px" height="20px" viewBox="0 0 20 20" version="1.1" xmlns="http://www.w3.org/2000/svg" xmlns:xlink="http://www.w3.org/1999/xlink" xmlns:sketch="http://www.bohemiancoding.com/sketch/ns">
    <!-- Generator: Sketch 3.3.3 (12072) - http://www.bohemiancoding.com/sketch -->
    <title>Trim</title>
    <desc>Created with Sketch.</desc>
    <defs></defs>
    <g id="Page-1" stroke="none" stroke-width="1" fill="none" fill-rule="evenodd" sketch:type="MSPage">
        <g id="Group" sketch:type="MSLayerGroup" transform="translate(3.000000, 3.000000)" fill="#F03A49">
            <path d="M4,3 L7,-4.4408921e-16 L10,3 L7,6 L4,3 L4,3 Z" id="Rectangle-1-Copy" sketch:type="MSShapeGroup"></path>
            <path d="M0,7 L3,4 L6,7 L3,10 L0,7 L0,7 Z" id="Rectangle-1-Copy-2" sketch:type="MSShapeGroup"></path>
            <path d="M4,11 L7,8 L10,11 L7,14 L4,11 L4,11 Z" id="Rectangle-1-Copy-3" sketch:type="MSShapeGroup"></path>
            <path d="M8,7 L11,4 L14,7 L11,10 L8,7 L8,7 Z" id="Rectangle-1-Copy-4" sketch:type="MSShapeGroup"></path>
        </g>
        <g id="Group-Copy" sketch:type="MSLayerGroup" transform="translate(-7.000000, -7.000000)" fill="#F03A49">
            <path d="M4,11 L7,8 L10,11 L7,14 L4,11 L4,11 Z" id="Rectangle-1-Copy-3" sketch:type="MSShapeGroup"></path>
            <path d="M8,7 L11,4 L14,7 L11,10 L8,7 L8,7 Z" id="Rectangle-1-Copy-4" sketch:type="MSShapeGroup"></path>
        </g>
        <g id="Group-Copy-2" sketch:type="MSLayerGroup" transform="translate(13.000000, -7.000000)" fill="#F03A49">
            <path d="M0,7 L3,4 L6,7 L3,10 L0,7 L0,7 Z" id="Rectangle-1-Copy-2" sketch:type="MSShapeGroup"></path>
            <path d="M4,11 L7,8 L10,11 L7,14 L4,11 L4,11 Z" id="Rectangle-1-Copy-3" sketch:type="MSShapeGroup"></path>
        </g>
        <g id="Group-Copy-3" sketch:type="MSLayerGroup" transform="translate(13.000000, 13.000000)" fill="#F03A49">
            <path d="M4,3 L7,-4.4408921e-16 L10,3 L7,6 L4,3 L4,3 Z" id="Rectangle-1-Copy" sketch:type="MSShapeGroup"></path>
            <path d="M0,7 L3,4 L6,7 L3,10 L0,7 L0,7 Z" id="Rectangle-1-Copy-2" sketch:type="MSShapeGroup"></path>
        </g>
        <g id="Group-Copy-4" sketch:type="MSLayerGroup" transform="translate(-7.000000, 13.000000)" fill="#F03A49">
            <path d="M4,3 L7,-4.4408921e-16 L10,3 L7,6 L4,3 L4,3 Z" id="Rectangle-1-Copy" sketch:type="MSShapeGroup"></path>
            <path d="M8,7 L11,4 L14,7 L11,10 L8,7 L8,7 Z" id="Rectangle-1-Copy-4" sketch:type="MSShapeGroup"></path>
        </g>
    </g>
</svg>