<svg xmlns="http://www.w3.org/2000/svg" viewBox="0 0 512 512"><path d="M0 128v-8c0-6.6 5.4-12 12-12h105.8c3.3 0 6.5 1.4 8.8 3.9l89.7 97-21.8 23.6L109 140H12c-6.6 0-12-5.4-12-12zm502.6 278.6l-64 64c-20.1 20.1-54.6 5.8-54.6-22.6v-44h-25.7c-3.3 0-6.5-1.4-8.8-3.9l-89.7-97 21.8-23.6L367 372h17v-52c0-28.5 34.5-42.7 54.6-22.6l64 64c12.5 12.5 12.5 32.7 0 45.2zm-19.8-25.4l-64-64c-2.5-2.5-6.8-.7-6.8 2.8v128c0 3.6 4.3 5.4 6.8 2.8l64-64c1.6-1.5 1.6-4.1 0-5.6zm19.8-230.6l-64 64c-20.1 20.1-54.6 5.8-54.6-22.6v-52h-17L126.6 400.1c-2.3 2.5-5.5 3.9-8.8 3.9H12c-6.6 0-12-5.4-12-12v-8c0-6.6 5.4-12 12-12h97l240.4-260.1c2.3-2.5 5.5-3.9 8.8-3.9H384V64c0-28.5 34.5-42.7 54.6-22.6l64 64c12.5 12.5 12.5 32.7 0 45.2zm-19.8-25.4l-64-64c-2.5-2.5-6.8-.7-6.8 2.8v128c0 3.6 4.3 5.4 6.8 2.8l64-64c1.6-1.5 1.6-4.1 0-5.6z"/></svg>