<?xml version="1.0" encoding="UTF-8" standalone="no"?>
<svg width="227px" height="315px" viewBox="0 0 227 315" version="1.1" xmlns="http://www.w3.org/2000/svg" xmlns:xlink="http://www.w3.org/1999/xlink" xmlns:sketch="http://www.bohemiancoding.com/sketch/ns">
    <!-- Generator: Sketch 3.3.3 (12072) - http://www.bohemiancoding.com/sketch -->
    <title>Trim</title>
    <desc>Created with Sketch.</desc>
    <defs></defs>
    <g id="Page-1" stroke="none" stroke-width="1" fill="none" fill-rule="evenodd" sketch:type="MSPage">
        <g id="Spades" sketch:type="MSLayerGroup" transform="translate(9.000000, 26.000000)" fill="#000000">
            <g id="A" transform="translate(0.000000, 26.000000)" sketch:type="MSShapeGroup">
                <path d="M9.74600776,0.403329533 C5.45464278,5.86793403 0.863023615,9.01260303 0.786765424,13.2759124 C0.760881443,14.6564324 1.59703359,17.0028729 4.21529785,17.4520016 C5.91398389,17.7420409 8.25270115,16.5143904 8.30158205,14.0202937 C8.29162668,13.5237371 8.89034307,13.5366457 8.88476806,14.2170424 C8.80512504,16.1843694 8.10735264,18.4748693 6.93520651,20.3393563 L12.556809,20.3393563 C11.3846629,18.4748693 10.6871891,16.1843694 10.6072475,14.2170424 C10.5972921,13.5366457 11.1979,13.5237371 11.1904335,14.0202937 C11.2392148,16.5143904 13.5780316,17.7420409 15.2767177,17.4520016 C17.8949819,17.0028729 18.7308354,14.6564324 18.7052501,13.2759124 C18.6285937,9.01260303 14.0372732,5.86793403 9.74600776,0.403329533 L9.74600776,0.403329533 Z" id="path153-0-1-2-5-5-5-3-4"></path>
                <path d="M197.698058,211.590287 C193.406693,206.125682 188.815073,202.981013 188.738815,198.717704 C188.712931,197.337184 189.549083,194.990743 192.167348,194.541614 C193.866034,194.251575 196.204751,195.479226 196.253632,197.973322 C196.243677,198.469879 196.842393,198.45697 196.836818,197.776574 C196.757175,195.809247 196.059402,193.518747 194.887256,191.65426 L200.508859,191.65426 C199.336713,193.518747 198.639239,195.809247 198.559297,197.776574 C198.549342,198.45697 199.14995,198.469879 199.142483,197.973322 C199.191265,195.479226 201.530081,194.251575 203.228768,194.541614 C205.847032,194.990743 206.682885,197.337184 206.6573,198.717704 C206.580644,202.981013 201.989323,206.125682 197.698058,211.590287 L197.698058,211.590287 Z" id="path153-0-1-2-5-6-5-9-1-9"></path>
                <path d="M104.721664,82.0735061 C95.5368332,95.188541 85.7091832,102.735772 85.5459151,112.967699 C85.4911605,116.280967 87.2802413,121.912416 92.8841233,122.990317 C96.5198271,123.686413 101.52549,120.740058 101.630022,114.754226 C101.614093,113.5625 102.890273,113.593471 102.878327,115.226431 C102.707094,119.948 101.214385,125.4452 98.7056298,129.91997 L110.737699,129.91997 C108.228944,125.4452 106.736235,119.948 106.565002,115.226431 C106.553056,113.593471 107.829235,113.5625 107.813307,114.754226 C107.917838,120.740058 112.923502,123.686413 116.559205,122.990317 C122.163087,121.912416 123.952168,116.280967 123.897414,112.967699 C123.734145,102.735772 113.906496,95.188541 104.721664,82.0735061 L104.721664,82.0735061 Z" id="path153-6-3-1-6-92-7-2-9-8"></path>
            </g>
        </g>
    </g>
</svg>