<?xml version="1.0" encoding="UTF-8" standalone="no"?>
<svg width="227px" height="315px" viewBox="0 0 227 315" version="1.1" xmlns="http://www.w3.org/2000/svg" xmlns:xlink="http://www.w3.org/1999/xlink" xmlns:sketch="http://www.bohemiancoding.com/sketch/ns">
    <!-- Generator: Sketch 3.3.3 (12072) - http://www.bohemiancoding.com/sketch -->
    <title>Trim</title>
    <desc>Created with Sketch.</desc>
    <defs></defs>
    <g id="Page-1" stroke="none" stroke-width="1" fill="none" fill-rule="evenodd" sketch:type="MSPage">
        <g id="Spades" sketch:type="MSLayerGroup" transform="translate(10.000000, 26.000000)" fill="#000000">
            <g id="4" transform="translate(1.000000, 9.000000)" sketch:type="MSShapeGroup">
                <path d="M51.5018151,0.18019726 C42.3169839,13.2952321 32.489334,20.8424636 32.3260658,31.0743901 C32.2713112,34.3876581 34.0603921,40.0191072 39.664274,41.0970083 C43.2999778,41.7931046 48.3056412,38.8467492 48.4101726,32.8609173 C48.394244,31.6691915 49.6704238,31.7001621 49.6584774,33.333122 C49.4872449,38.0546909 47.9945356,43.5518908 45.4857805,48.0266616 L57.5178496,48.0266616 C55.0090945,43.5518908 53.5163852,38.0546909 53.3451528,33.333122 C53.3332063,31.7001621 54.6093861,31.6691915 54.5934575,32.8609173 C54.697989,38.8467492 59.7036523,41.7931046 63.3393561,41.0970083 C68.9432381,40.0191072 70.7323189,34.3876581 70.6775644,31.0743901 C70.5142962,20.8424636 60.6866463,13.2952321 51.5018151,0.18019726 L51.5018151,0.18019726 Z" id="path6882-1-0"></path>
                <path d="M9.06154345,17.4033295 C4.77017847,22.867934 0.178559301,26.012603 0.102301111,30.2759124 C0.0764171294,31.6564324 0.912569277,34.0028729 3.53083353,34.4520016 C5.22951958,34.7420409 7.56823684,33.5143904 7.61711774,31.0202937 C7.60716236,30.5237371 8.20587876,30.5366457 8.20030375,31.2170424 C8.12066073,33.1843694 7.42288833,35.4748693 6.25074219,37.3393563 L11.8723447,37.3393563 C10.7001986,35.4748693 10.0027248,33.1843694 9.92278315,31.2170424 C9.91282777,30.5366457 10.5134357,30.5237371 10.5059692,31.0202937 C10.5547505,33.5143904 12.8935673,34.7420409 14.5922534,34.4520016 C17.2105176,34.0028729 18.0463711,31.6564324 18.0207858,30.2759124 C17.9441294,26.012603 13.3528089,22.867934 9.06154345,17.4033295 L9.06154345,17.4033295 Z" id="path6884-6-5"></path>
                <path d="M197.013593,228.590287 C192.722228,223.125682 188.130609,219.981013 188.054351,215.717704 C188.028467,214.337184 188.864619,211.990743 191.482883,211.541614 C193.181569,211.251575 195.520287,212.479226 195.569168,214.973322 C195.559212,215.469879 196.157929,215.45697 196.152354,214.776574 C196.072711,212.809247 195.374938,210.518747 194.202792,208.65426 L199.824395,208.65426 C198.652248,210.518747 197.954775,212.809247 197.874833,214.776574 C197.864878,215.45697 198.465486,215.469879 198.458019,214.973322 C198.5068,212.479226 200.845617,211.251575 202.544303,211.541614 C205.162567,211.990743 205.998421,214.337184 205.972836,215.717704 C205.896179,219.981013 201.304859,223.125682 197.013593,228.590287 L197.013593,228.590287 Z" id="path6888-1-5"></path>
                <path d="M154.572625,0.18019726 C145.387794,13.2952321 135.560144,20.8424636 135.396876,31.0743901 C135.342121,34.3876581 137.131202,40.0191072 142.735084,41.0970083 C146.370788,41.7931046 151.376451,38.8467492 151.480982,32.8609173 C151.465054,31.6691915 152.741234,31.7001621 152.729287,33.333122 C152.558055,38.0546909 151.065345,43.5518908 148.55659,48.0266616 L160.588659,48.0266616 C158.079904,43.5518908 156.587195,38.0546909 156.415962,33.333122 C156.404016,31.7001621 157.680196,31.6691915 157.664267,32.8609173 C157.768799,38.8467492 162.774462,41.7931046 166.410166,41.0970083 C172.014048,40.0191072 173.803129,34.3876581 173.748374,31.0743901 C173.585106,20.8424636 163.757456,13.2952321 154.572625,0.18019726 L154.572625,0.18019726 Z" id="path6890-4-9"></path>
                <path d="M51.5018151,245.813289 C42.3169839,232.698254 32.489334,225.151023 32.3260658,214.919096 C32.2713112,211.605828 34.0603921,205.974379 39.664274,204.896478 C43.2999778,204.200382 48.3056412,207.146737 48.4101726,213.132569 C48.394244,214.324295 49.6704238,214.293324 49.6584774,212.660364 C49.4872449,207.938796 47.9945356,202.441596 45.4857805,197.966825 L57.5178496,197.966825 C55.0090945,202.441596 53.5163852,207.938796 53.3451528,212.660364 C53.3332063,214.293324 54.6093861,214.324295 54.5934575,213.132569 C54.697989,207.146737 59.7036523,204.200382 63.3393561,204.896478 C68.9432381,205.974379 70.7323189,211.605828 70.6775644,214.919096 C70.5142962,225.151023 60.6866463,232.698254 51.5018151,245.813289 L51.5018151,245.813289 Z" id="path6902-7-5"></path>
                <path d="M154.572625,245.813289 C145.387794,232.698254 135.560144,225.151023 135.396876,214.919096 C135.342121,211.605828 137.131202,205.974379 142.735084,204.896478 C146.370788,204.200382 151.376451,207.146737 151.480982,213.132569 C151.465054,214.324295 152.741234,214.293324 152.729287,212.660364 C152.558055,207.938796 151.065345,202.441596 148.55659,197.966825 L160.588659,197.966825 C158.079904,202.441596 156.587195,207.938796 156.415962,212.660364 C156.404016,214.293324 157.680196,214.324295 157.664267,213.132569 C157.768799,207.146737 162.774462,204.200382 166.410166,204.896478 C172.014048,205.974379 173.803129,211.605828 173.748374,214.919096 C173.585106,225.151023 163.757456,232.698254 154.572625,245.813289 L154.572625,245.813289 Z" id="path6904-9-7"></path>
            </g>
        </g>
    </g>
</svg>