<?xml version="1.0" encoding="UTF-8" standalone="no"?>
<svg width="227px" height="315px" viewBox="0 0 227 315" version="1.1" xmlns="http://www.w3.org/2000/svg" xmlns:xlink="http://www.w3.org/1999/xlink" xmlns:sketch="http://www.bohemiancoding.com/sketch/ns">
    <!-- Generator: Sketch 3.3.3 (12072) - http://www.bohemiancoding.com/sketch -->
    <title>Trim</title>
    <desc>Created with Sketch.</desc>
    <defs></defs>
    <g id="Page-1" stroke="none" stroke-width="1" fill="none" fill-rule="evenodd" sketch:type="MSPage">
        <g id="Spades" sketch:type="MSLayerGroup" transform="translate(10.000000, 26.000000)" fill="#000000">
            <g id="7" transform="translate(0.000000, 9.000000)" sketch:type="MSShapeGroup">
                <path d="M51.8219624,0.18019726 C42.6371312,13.2952321 32.8094813,20.8424636 32.6462131,31.0743901 C32.5914585,34.3876581 34.3805394,40.0191072 39.9844213,41.0970083 C43.6201251,41.7931046 48.6257884,38.8467492 48.7303199,32.8609173 C48.7143913,31.6691915 49.9905711,31.7001621 49.9786247,33.333122 C49.8073922,38.0546909 48.3146829,43.5518908 45.8059278,48.0266616 L57.8379969,48.0266616 C55.3292418,43.5518908 53.8365325,38.0546909 53.6653,33.333122 C53.6533536,31.7001621 54.9295334,31.6691915 54.9136048,32.8609173 C55.0181363,38.8467492 60.0237996,41.7931046 63.6595034,41.0970083 C69.2633853,40.0191072 71.0524662,34.3876581 70.9977116,31.0743901 C70.8344434,20.8424636 61.0067935,13.2952321 51.8219624,0.18019726 L51.8219624,0.18019726 Z" id="path7086-8-0"></path>
                <path d="M9.38169073,17.4033295 C5.09032574,22.867934 0.498706579,26.012603 0.422448388,30.2759124 C0.396564407,31.6564324 1.23271655,34.0028729 3.85098081,34.4520016 C5.54966686,34.7420409 7.88838412,33.5143904 7.93726502,31.0202937 C7.92730964,30.5237371 8.52602604,30.5366457 8.52045103,31.2170424 C8.44080801,33.1843694 7.74303561,35.4748693 6.57088947,37.3393563 L12.192492,37.3393563 C11.0203458,35.4748693 10.3228721,33.1843694 10.2429304,31.2170424 C10.232975,30.5366457 10.833583,30.5237371 10.8261164,31.0202937 C10.8748978,33.5143904 13.2137146,34.7420409 14.9124006,34.4520016 C17.5306649,34.0028729 18.3665184,31.6564324 18.3409331,30.2759124 C18.2642767,26.012603 13.6729562,22.867934 9.38169073,17.4033295 L9.38169073,17.4033295 Z" id="path7088-9-3"></path>
                <path d="M197.333741,228.590287 C193.042376,223.125682 188.450756,219.981013 188.374498,215.717704 C188.348614,214.337184 189.184766,211.990743 191.803031,211.541614 C193.501717,211.251575 195.840434,212.479226 195.889315,214.973322 C195.879359,215.469879 196.478076,215.45697 196.472501,214.776574 C196.392858,212.809247 195.695085,210.518747 194.522939,208.65426 L200.144542,208.65426 C198.972396,210.518747 198.274922,212.809247 198.19498,214.776574 C198.185025,215.45697 198.785633,215.469879 198.778166,214.973322 C198.826948,212.479226 201.165764,211.251575 202.86445,211.541614 C205.482715,211.990743 206.318568,214.337184 206.292983,215.717704 C206.216327,219.981013 201.625006,223.125682 197.333741,228.590287 L197.333741,228.590287 Z" id="path7092-7-0"></path>
                <path d="M154.892772,0.18019726 C145.707941,13.2952321 135.880291,20.8424636 135.717023,31.0743901 C135.662268,34.3876581 137.451349,40.0191072 143.055231,41.0970083 C146.690935,41.7931046 151.696598,38.8467492 151.80113,32.8609173 C151.785201,31.6691915 153.061381,31.7001621 153.049434,33.333122 C152.878202,38.0546909 151.385493,43.5518908 148.876738,48.0266616 L160.908807,48.0266616 C158.400052,43.5518908 156.907342,38.0546909 156.73611,33.333122 C156.724163,31.7001621 158.000343,31.6691915 157.984415,32.8609173 C158.088946,38.8467492 163.094609,41.7931046 166.730313,41.0970083 C172.334195,40.0191072 174.123276,34.3876581 174.068521,31.0743901 C173.905253,20.8424636 164.077603,13.2952321 154.892772,0.18019726 L154.892772,0.18019726 Z" id="path7094-3-5"></path>
                <path d="M103.357367,49.6267969 C94.172536,62.7418317 84.3448861,70.2890632 84.1816179,80.5209897 C84.1268634,83.8342577 85.9159442,89.4657068 91.5198262,90.5436079 C95.15553,91.2397042 100.161193,88.2933488 100.265725,82.3075169 C100.249796,81.1157911 101.525976,81.1467617 101.51403,82.7797216 C101.342797,87.5012905 99.8500878,92.9984904 97.3413327,97.4732612 L109.373402,97.4732612 C106.864647,92.9984904 105.371937,87.5012905 105.200705,82.7797216 C105.188758,81.1467617 106.464938,81.1157911 106.44901,82.3075169 C106.553541,88.2933488 111.559204,91.2397042 115.194908,90.5436079 C120.79879,89.4657068 122.587871,83.8342577 122.533117,80.5209897 C122.369848,70.2890632 112.542198,62.7418317 103.357367,49.6267969 L103.357367,49.6267969 Z" id="path7098-7-3"></path>
                <path d="M51.8219624,99.0735061 C42.6371312,112.188541 32.8094813,119.735772 32.6462131,129.967699 C32.5914585,133.280967 34.3805394,138.912416 39.9844213,139.990317 C43.6201251,140.686413 48.6257884,137.740058 48.7303199,131.754226 C48.7143913,130.5625 49.9905711,130.593471 49.9786247,132.226431 C49.8073922,136.948 48.3146829,142.4452 45.8059278,146.91997 L57.8379969,146.91997 C55.3292418,142.4452 53.8365325,136.948 53.6653,132.226431 C53.6533536,130.593471 54.9295334,130.5625 54.9136048,131.754226 C55.0181363,137.740058 60.0237996,140.686413 63.6595034,139.990317 C69.2633853,138.912416 71.0524662,133.280967 70.9977116,129.967699 C70.8344434,119.735772 61.0067935,112.188541 51.8219624,99.0735061 L51.8219624,99.0735061 Z" id="path7105-0-7"></path>
                <path d="M51.8219624,245.813289 C42.6371312,232.698254 32.8094813,225.151023 32.6462131,214.919096 C32.5914585,211.605828 34.3805394,205.974379 39.9844213,204.896478 C43.6201251,204.200382 48.6257884,207.146737 48.7303199,213.132569 C48.7143913,214.324295 49.9905711,214.293324 49.9786247,212.660364 C49.8073922,207.938796 48.3146829,202.441596 45.8059278,197.966825 L57.8379969,197.966825 C55.3292418,202.441596 53.8365325,207.938796 53.6653,212.660364 C53.6533536,214.293324 54.9295334,214.324295 54.9136048,213.132569 C55.0181363,207.146737 60.0237996,204.200382 63.6595034,204.896478 C69.2633853,205.974379 71.0524662,211.605828 70.9977116,214.919096 C70.8344434,225.151023 61.0067935,232.698254 51.8219624,245.813289 L51.8219624,245.813289 Z" id="path7107-6-3"></path>
                <path d="M154.892772,245.813289 C145.707941,232.698254 135.880291,225.151023 135.717023,214.919096 C135.662268,211.605828 137.451349,205.974379 143.055231,204.896478 C146.690935,204.200382 151.696598,207.146737 151.80113,213.132569 C151.785201,214.324295 153.061381,214.293324 153.049434,212.660364 C152.878202,207.938796 151.385493,202.441596 148.876738,197.966825 L160.908807,197.966825 C158.400052,202.441596 156.907342,207.938796 156.73611,212.660364 C156.724163,214.293324 158.000343,214.324295 157.984415,213.132569 C158.088946,207.146737 163.094609,204.200382 166.730313,204.896478 C172.334195,205.974379 174.123276,211.605828 174.068521,214.919096 C173.905253,225.151023 164.077603,232.698254 154.892772,245.813289 L154.892772,245.813289 Z" id="path7109-5-0"></path>
                <path d="M154.892772,99.0735061 C145.707941,112.188541 135.880291,119.735772 135.717023,129.967699 C135.662268,133.280967 137.451349,138.912416 143.055231,139.990317 C146.690935,140.686413 151.696598,137.740058 151.80113,131.754226 C151.785201,130.5625 153.061381,130.593471 153.049434,132.226431 C152.878202,136.948 151.385493,142.4452 148.876738,146.91997 L160.908807,146.91997 C158.400052,142.4452 156.907342,136.948 156.73611,132.226431 C156.724163,130.593471 158.000343,130.5625 157.984415,131.754226 C158.088946,137.740058 163.094609,140.686413 166.730313,139.990317 C172.334195,138.912416 174.123276,133.280967 174.068521,129.967699 C173.905253,119.735772 164.077603,112.188541 154.892772,99.0735061 L154.892772,99.0735061 Z" id="path7119-1-9"></path>
            </g>
        </g>
    </g>
</svg>