<?xml version="1.0" encoding="UTF-8" standalone="no"?>
<svg width="227px" height="315px" viewBox="0 0 227 315" version="1.1" xmlns="http://www.w3.org/2000/svg" xmlns:xlink="http://www.w3.org/1999/xlink" xmlns:sketch="http://www.bohemiancoding.com/sketch/ns">
    <!-- Generator: Sketch 3.3.3 (12072) - http://www.bohemiancoding.com/sketch -->
    <title>Trim</title>
    <desc>Created with Sketch.</desc>
    <defs></defs>
    <g id="Page-1" stroke="none" stroke-width="1" fill="none" fill-rule="evenodd" sketch:type="MSPage">
        <g id="Hearts" sketch:type="MSLayerGroup" transform="translate(9.000000, 25.000000)" fill="#D40000">
            <g id="2" transform="translate(1.000000, 9.000000)" sketch:type="MSShapeGroup">
                <path d="M9.36698239,37.6854661 C9.36698239,37.6854661 7.15220958,34.5058892 4.16460281,30.7675652 C2.16586169,28.2659028 0.568023621,25.5570653 0.419389836,23.2238225 C0.249053329,20.5584953 1.86192402,17.8845458 4.78193577,17.7549417 C7.70025311,17.6254273 8.88474391,19.8100271 9.36698239,21.6111574 C9.84922087,19.8100271 11.0338112,17.6254273 13.952031,17.7549417 C16.8720428,17.8845458 18.485013,20.5584953 18.3145769,23.2238225 C18.1660427,25.5570653 16.5681051,28.2659028 14.5694635,30.7675652 C11.5817552,34.5058892 9.36698239,37.6854661 9.36698239,37.6854661 L9.36698239,37.6854661 Z" id="path9766-0-8"></path>
                <path d="M197.319028,209.000371 C197.319028,209.000371 195.104255,212.179948 192.116647,215.918272 C190.117906,218.419934 188.520068,221.128771 188.371434,223.462014 C188.201097,226.127341 189.813968,228.801291 192.73398,228.930895 C195.652299,229.060409 196.83679,226.87581 197.319028,225.074679 C197.801267,226.87581 198.985857,229.060409 201.904077,228.930895 C204.824085,228.801291 206.437055,226.127341 206.266619,223.462014 C206.118085,221.128771 204.520147,218.419934 202.521509,215.918272 C199.533801,212.179948 197.319028,209.000371 197.319028,209.000371 L197.319028,209.000371 Z" id="path9768-3-3"></path>
                <path d="M103.342605,48.3727714 C103.342605,48.3727714 98.6971274,40.7417886 92.4306155,31.7697891 C88.2384061,25.7657955 84.8868287,19.2645873 84.5752254,13.6647966 C84.2178274,7.26801343 87.6008637,0.850536631 93.725611,0.539504709 C99.8466748,0.228652211 102.331238,5.47170764 103.342605,9.7944164 C104.354072,5.47170764 106.838635,0.228652211 112.959699,0.539504709 C119.084446,0.850536631 122.467482,7.26801343 122.110084,13.6647966 C121.798481,19.2645873 118.446904,25.7657955 114.254694,31.7697891 C107.988182,40.7417886 103.342605,48.3727714 103.342605,48.3727714 L103.342605,48.3727714 Z" id="path9772-1-7"></path>
                <path d="M103.342605,198.312936 C103.342605,198.312936 98.6971274,205.943919 92.4306155,214.915918 C88.2384091,220.919912 84.8868317,227.42112 84.5752284,233.02091 C84.2178304,239.417694 87.6008667,245.83517 93.725611,246.146202 C99.8466748,246.457055 102.331238,241.213999 103.342605,236.891291 C104.354072,241.213999 106.838635,246.457055 112.959699,246.146202 C119.084446,245.83517 122.467482,239.417694 122.110084,233.02091 C121.798481,227.42112 118.446904,220.919912 114.254694,214.915918 C107.988182,205.943919 103.342605,198.312936 103.342605,198.312936 L103.342605,198.312936 Z" id="path9786-2-1"></path>
            </g>
        </g>
    </g>
</svg>