<?xml version="1.0" encoding="UTF-8" standalone="no"?>
<svg width="227px" height="315px" viewBox="0 0 227 315" version="1.1" xmlns="http://www.w3.org/2000/svg" xmlns:xlink="http://www.w3.org/1999/xlink" xmlns:sketch="http://www.bohemiancoding.com/sketch/ns">
    <!-- Generator: Sketch 3.3.3 (12072) - http://www.bohemiancoding.com/sketch -->
    <title>Trim</title>
    <desc>Created with Sketch.</desc>
    <defs></defs>
    <g id="Page-1" stroke="none" stroke-width="1" fill="none" fill-rule="evenodd" sketch:type="MSPage">
        <g id="Clubs" sketch:type="MSLayerGroup" transform="translate(10.000000, 23.000000)" fill="#000000">
            <g id="10" transform="translate(0.000000, 11.000000)" sketch:type="MSShapeGroup">
                <path d="M155.20614,0.63526727 C145.431667,0.847567695 141.04878,11.8525897 148.287759,20.3986068 C149.337656,21.6452093 149.445956,22.3605107 147.523161,21.1632083 C142.649375,17.9040018 133.304002,20.0465061 132.825403,30.010426 C132.234305,42.2874506 149.388256,45.8247576 152.609047,32.7701315 C152.779147,31.3927288 153.898543,31.4242288 153.628644,33.3793328 C153.334945,38.6857434 151.67775,43.6453533 149.399956,48.481863 L161.020123,48.481863 C158.74243,43.6453533 157.085234,38.6857434 156.791535,33.3793328 C156.521636,31.4242288 157.641033,31.3927288 157.811032,32.7701315 C161.031923,45.8247576 178.185875,42.2874506 177.594677,30.010426 C177.116278,20.0465061 167.770804,17.9040018 162.896918,21.1632083 C160.974123,22.3605107 161.082523,21.6452093 162.13242,20.3986068 C169.3714,11.8525897 164.988512,0.847567695 155.21414,0.63526727 C155.21414,0.63526727 155.21414,0.635367271 155.20414,0.63526727 L155.20614,0.63526727 Z" id="path147-0-8-1-6-13-2-22-1-5"></path>
                <path d="M52.1356304,0.63526727 C42.361158,0.847567695 37.9781703,11.8525897 45.2172499,20.3986068 C46.267147,21.6452093 46.3754467,22.3605107 44.4526521,21.1632083 C39.5788658,17.9040018 30.2334922,20.0465061 29.7548935,30.010426 C29.1637952,42.2874506 46.3177468,45.8247576 49.5385377,32.7701315 C49.7086373,31.3927288 50.8279341,31.4242288 50.5581349,33.3793328 C50.2644357,38.6857434 48.6072404,43.6453533 46.3294468,48.481863 L57.949614,48.481863 C55.6719204,43.6453533 54.0147251,38.6857434 53.7210259,33.3793328 C53.4511267,31.4242288 54.5705236,31.3927288 54.7405231,32.7701315 C57.961414,45.8247576 75.1153656,42.2874506 74.5241673,30.010426 C74.0457686,20.0465061 64.700295,17.9040018 59.8264087,21.1632083 C57.9036142,22.3605107 58.0119138,21.6452093 59.0618109,20.3986068 C66.3008905,11.8525897 61.9179028,0.847567695 52.1436304,0.63526727 C52.1436304,0.63526727 52.1436304,0.635367271 52.1336304,0.63526727 L52.1356304,0.63526727 Z" id="path147-0-8-1-6-75-2-83-21-1-8"></path>
                <path d="M155.20614,246.268859 C145.431667,246.056598 141.04878,235.051566 148.287759,226.505539 C149.337656,225.259007 149.445956,224.543655 147.523161,225.741007 C142.649375,229.000204 133.304002,226.85764 132.825403,216.89371 C132.234305,204.616735 149.388256,201.079418 152.609047,214.134034 C152.779147,215.511397 153.898543,215.479977 153.628644,213.524873 C153.334945,208.218452 151.67775,203.258793 149.399956,198.422313 L161.020123,198.422313 C158.74243,203.258793 157.085234,208.218452 156.791535,213.524873 C156.521636,215.479977 157.641033,215.511397 157.811032,214.134034 C161.031923,201.079418 178.185875,204.616735 177.594677,216.89371 C177.116278,226.85764 167.770804,229.000204 162.896918,225.741007 C160.974123,224.543655 161.082523,225.259007 162.13242,226.505539 C169.3714,235.051566 164.988512,246.056588 155.21414,246.268859 C155.21414,246.268919 155.21414,246.268809 155.20414,246.268859 L155.20614,246.268859 Z" id="path147-0-8-1-6-7-5-5-7-3-5-5"></path>
                <path d="M52.1356304,246.268859 C42.361158,246.056598 37.9781703,235.051566 45.2172499,226.505539 C46.267147,225.259007 46.3754467,224.543655 44.4526521,225.741007 C39.5788658,229.000204 30.2334922,226.85764 29.7548935,216.89371 C29.1637952,204.616735 46.3177468,201.079418 49.5385377,214.134034 C49.7086373,215.511397 50.8279341,215.479977 50.5581349,213.524873 C50.2644357,208.218452 48.6072404,203.258793 46.3294468,198.422313 L57.949614,198.422313 C55.6719204,203.258793 54.0147251,208.218452 53.7210259,213.524873 C53.4511267,215.479977 54.5705236,215.511397 54.7405231,214.134034 C57.961414,201.079418 75.1153656,204.616735 74.5241673,216.89371 C74.0457686,226.85764 64.700295,229.000204 59.8264087,225.741007 C57.9036142,224.543655 58.0119138,225.259007 59.0618109,226.505539 C66.3008905,235.051566 61.9179028,246.056588 52.1436304,246.268859 C52.1436304,246.268919 52.1436304,246.268809 52.1336304,246.268859 L52.1356304,246.268859 Z" id="path147-0-8-1-6-75-6-1-2-7-9-3"></path>
                <path d="M103.670785,33.6000332 C93.8963127,33.8123336 89.513525,44.8173556 96.7524046,53.3633727 C97.8023016,54.6098752 97.9106013,55.3252767 95.9879068,54.1278743 C91.1140205,50.8686677 81.7686469,53.011272 81.2900482,62.975202 C80.6989499,75.2521665 97.8529015,78.7894936 101.073792,65.7348675 C101.243792,64.3575047 102.363189,64.3889348 102.09329,66.3440387 C101.79959,71.6504593 100.142395,76.6101092 97.8647015,81.4465889 L109.484869,81.4465889 C107.207175,76.6101092 105.54988,71.6504593 105.256181,66.3440387 C104.986281,64.3889348 106.105678,64.3575047 106.275678,65.7348675 C109.496569,78.7894936 126.65052,75.2521665 126.059422,62.975202 C125.580923,53.011272 116.23545,50.8686677 111.361663,54.1278743 C109.438869,55.3252767 109.547169,54.6098752 110.597066,53.3633727 C117.836045,44.8173556 113.453158,33.8123336 103.678785,33.6000332 C103.678785,33.6000332 103.678785,33.6001332 103.668785,33.6000332 L103.670785,33.6000332 Z" id="path147-0-8-1-6-2-00-7-1-1-4"></path>
                <path d="M103.670885,213.304363 C93.8964127,213.092102 89.513425,202.08708 96.7525046,193.541053 C97.8024016,192.294521 97.9107013,191.579169 95.9879068,192.776522 C91.1141205,196.035718 81.7687469,193.893154 81.2901482,183.929224 C80.6990499,171.652249 97.8530015,168.114922 101.073792,181.169548 C101.243892,182.546911 102.363289,182.515491 102.09339,180.560387 C101.79969,175.253957 100.142495,170.294297 97.8647015,165.457817 L109.484869,165.457817 C107.207175,170.294297 105.54998,175.253957 105.256281,180.560387 C104.986381,182.515491 106.105778,182.546911 106.275778,181.169548 C109.496669,168.114922 126.65062,171.652249 126.059422,183.929224 C125.581023,193.893154 116.23555,196.035718 111.361663,192.776522 C109.438869,191.579169 109.547269,192.294521 110.597066,193.541053 C117.836145,202.08708 113.453258,213.092092 103.678885,213.304363 C103.678885,213.304423 103.678885,213.304313 103.668885,213.304363 L103.670885,213.304363 Z" id="path147-0-8-1-6-2-0-8-6-8-1-8"></path>
                <path d="M197.65262,228.631333 C201.562309,228.542933 203.315604,223.957464 200.419912,220.396627 C199.999913,219.877236 199.956614,219.579165 200.725811,220.078066 C202.675306,221.436069 206.413495,220.543327 206.604895,216.391689 C206.841394,211.276279 199.979713,209.802396 198.691417,215.241826 C198.623417,215.815738 198.175619,215.802638 198.283618,214.988006 C198.401118,212.777002 199.063916,210.710477 199.975014,208.695283 L195.327227,208.695283 C196.238324,210.710477 196.901122,212.777002 197.018622,214.988006 C197.126622,215.802638 196.678823,215.815738 196.610823,215.241826 C195.322527,209.802396 188.460946,211.276279 188.697345,216.391689 C188.888745,220.543327 192.626934,221.436069 194.576429,220.078066 C195.345627,219.579165 195.302327,219.877236 194.882328,220.396627 C191.986636,223.957464 193.739931,228.542883 197.64962,228.631333 C197.65062,228.631353 197.64962,228.631313 197.64962,228.631333 L197.65262,228.631333 Z" id="path147-6-9-8-7-0-5-6-83-3-7"></path>
                <path d="M52.1356304,66.5643091 C42.361158,66.7765696 37.9782703,77.7816016 45.2172499,86.3276287 C46.267147,87.5741611 46.3754467,88.2895126 44.4526521,87.0921602 C39.5788658,83.8329637 30.2334922,85.975528 29.7548935,95.9394579 C29.1637952,108.216432 46.3177468,111.75375 49.5385377,98.6991334 C49.7086373,97.3217706 50.8279341,97.3531907 50.5581349,99.3082946 C50.2644357,104.614715 48.6072404,109.574375 46.3294468,114.410855 L57.949614,114.410855 C55.6719204,109.574375 54.0147251,104.614715 53.7210259,99.3082946 C53.4511267,97.3531907 54.5705236,97.3217706 54.7405231,98.6991334 C57.961414,111.75375 75.1153656,108.216432 74.5241673,95.9394579 C74.0457686,85.975528 64.700295,83.8329637 59.8264087,87.0921602 C57.9036142,88.2895126 58.0119138,87.5741611 59.0618109,86.3276287 C66.3008905,77.7816016 61.9179028,66.7765796 52.1436304,66.5643091 C52.1436304,66.5642491 52.1436304,66.5643591 52.1336304,66.5643091 L52.1356304,66.5643091 Z" id="path147-0-8-1-6-75-2-9-77-44-0-7"></path>
                <path d="M52.1356304,180.339857 C42.361158,180.127596 37.9781703,169.122554 45.2172499,160.576527 C46.267147,159.329995 46.3754467,158.614643 44.4526521,159.811996 C39.5788658,163.071192 30.2334922,160.928628 29.7548935,150.964698 C29.1637952,138.687733 46.3177468,135.150406 49.5385377,148.205032 C49.7086373,149.582395 50.8279341,149.550965 50.5581349,147.595861 C50.2644357,142.289441 48.6072404,137.329781 46.3294468,132.493301 L57.949614,132.493301 C55.6719204,137.329781 54.0147251,142.289441 53.7210259,147.595861 C53.4511267,149.550965 54.5705236,149.582395 54.7405231,148.205032 C57.961414,135.150406 75.1153656,138.687733 74.5241673,150.964698 C74.0457686,160.928628 64.700295,163.071192 59.8264087,159.811996 C57.9036142,158.614643 58.0119138,159.329995 59.0618109,160.576527 C66.3008905,169.122554 61.9179028,180.127586 52.1436304,180.339857 C52.1436304,180.339917 52.1436304,180.339807 52.1336304,180.339857 L52.1356304,180.339857 Z" id="path147-0-8-1-6-75-2-8-0-3-9-3"></path>
                <path d="M155.20614,66.5643091 C145.431667,66.7765696 141.04878,77.7816016 148.287759,86.3276287 C149.337656,87.5741611 149.445956,88.2895126 147.523161,87.0921602 C142.649375,83.8329637 133.304002,85.975528 132.825403,95.9394579 C132.234305,108.216432 149.388256,111.75375 152.609047,98.6991334 C152.779147,97.3217706 153.898543,97.3531907 153.628644,99.3082946 C153.334945,104.614715 151.67775,109.574375 149.399956,114.410855 L161.020123,114.410855 C158.74243,109.574375 157.085234,104.614715 156.791535,99.3082946 C156.521636,97.3531907 157.641033,97.3217706 157.811032,98.6991334 C161.031923,111.75375 178.185875,108.216432 177.594677,95.9394579 C177.116278,85.975528 167.770804,83.8329637 162.896918,87.0921602 C160.974123,88.2895126 161.082523,87.5741611 162.13242,86.3276287 C169.3714,77.7816016 164.988512,66.7765796 155.21414,66.5643091 C155.21414,66.5642491 155.21414,66.5643591 155.20414,66.5643091 L155.20614,66.5643091 Z" id="path147-0-8-1-6-75-2-9-7-1-9-7-9"></path>
                <path d="M155.20614,180.339857 C145.431667,180.127596 141.04878,169.122554 148.287759,160.576527 C149.337656,159.329995 149.445956,158.614643 147.523161,159.811996 C142.649375,163.071192 133.304002,160.928628 132.825403,150.964698 C132.234305,138.687733 149.388256,135.150406 152.609047,148.205032 C152.779147,149.582395 153.898543,149.550965 153.628644,147.595861 C153.334945,142.289441 151.67775,137.329781 149.399956,132.493301 L161.020123,132.493301 C158.74243,137.329781 157.085234,142.289441 156.791535,147.595861 C156.521636,149.550965 157.641033,149.582395 157.811032,148.205032 C161.031923,135.150406 178.185875,138.687733 177.594677,150.964698 C177.116278,160.928628 167.770804,163.071192 162.896918,159.811996 C160.974123,158.614643 161.082523,159.329995 162.13242,160.576527 C169.3714,169.122554 164.988512,180.127586 155.21414,180.339857 C155.21414,180.339917 155.21414,180.339807 155.20414,180.339857 L155.20614,180.339857 Z" id="path147-0-8-1-6-75-2-8-5-1-52-2-8"></path>
                <path d="M9.69815009,17.4440009 C5.78836112,17.5320011 4.03516606,22.1178102 6.9307579,25.6787174 C7.35075671,26.1981184 7.39405659,26.496119 6.62495876,25.997218 C4.67536426,24.6392153 0.937274797,25.5320171 0.745875337,29.6836254 C0.509376003,34.7990356 7.37095665,36.2729385 8.65935302,30.8335277 C8.72735283,30.2596265 9.17515157,30.2727265 9.06705187,31.0873282 C8.9496522,33.2983326 8.28675407,35.3648367 7.37565664,37.3800408 L12.0235435,37.3800408 C11.1124461,35.3648367 10.449548,33.2983326 10.3321483,31.0873282 C10.2241486,30.2727265 10.6718473,30.2596265 10.7398472,30.8335277 C12.0282435,36.2729385 18.8898242,34.7990356 18.6534248,29.6836254 C18.4619254,25.5320171 14.7238359,24.6392153 12.7742414,25.997218 C12.0051436,26.496119 12.0484435,26.1981184 12.4684423,25.6787174 C15.3640341,22.1178102 13.6108391,17.5324011 9.70115008,17.4440009 C9.70015009,17.4440009 9.70115008,17.4440009 9.70115008,17.4440009 L9.69815009,17.4440009 Z" id="path147-6-9-8-7-4-5-62-52-8-0"></path>
            </g>
        </g>
    </g>
</svg>