<?xml version="1.0" encoding="UTF-8" standalone="no"?>
<svg width="227px" height="315px" viewBox="0 0 227 315" version="1.1" xmlns="http://www.w3.org/2000/svg" xmlns:xlink="http://www.w3.org/1999/xlink" xmlns:sketch="http://www.bohemiancoding.com/sketch/ns">
    <!-- Generator: Sketch 3.3.3 (12072) - http://www.bohemiancoding.com/sketch -->
    <title>Trim</title>
    <desc>Created with Sketch.</desc>
    <defs></defs>
    <g id="Page-1" stroke="none" stroke-width="1" fill="none" fill-rule="evenodd" sketch:type="MSPage">
        <g id="Clubs" sketch:type="MSLayerGroup" transform="translate(10.000000, 23.000000)" fill="#000000">
            <g id="2" transform="translate(0.000000, 11.000000)" sketch:type="MSShapeGroup">
                <path d="M103.87056,0.6353 C94.09607,0.8475 89.71312,11.8526 96.95217,20.3986 C98.00206,21.6451 98.11039,22.3605 96.18759,21.1631 C91.31375,17.9039 81.96835,20.0465 81.48978,30.0104 C80.89864,42.2873 98.05264,45.8247 101.2735,32.7701 C101.44354,31.3927 102.56291,31.4241 102.29302,33.3792 C101.99934,38.6856 100.34217,43.6453 98.06439,48.4817 L109.68459,48.4817 C107.40691,43.6453 105.74964,38.6856 105.45595,33.3792 C105.18605,31.4241 106.30544,31.3927 106.47548,32.7701 C109.69634,45.8247 126.85035,42.2873 126.2592,30.0104 C125.78074,20.0465 116.43524,17.9039 111.56139,21.1631 C109.6386,22.3605 109.74691,21.6451 110.79681,20.3986 C118.03587,11.8526 113.65291,0.8476 103.87851,0.6353 C103.87851,0.6352 103.87851,0.6353 103.86851,0.6353 L103.87056,0.6353 Z" id="path147-0-8-1-6-7-2-1-6-3"></path>
                <path d="M103.87056,246.26834 C94.09608,246.05608 89.71312,235.05108 96.95218,226.50506 C98.00208,225.25853 98.1104,224.54319 96.1876,225.74053 C91.31375,228.99973 81.96834,226.85716 81.48978,216.89325 C80.89863,204.61631 98.05265,201.07899 101.27351,214.13359 C101.44355,215.51095 102.56292,215.47952 102.29303,213.52442 C101.99935,208.21801 100.34219,203.25837 98.0644,198.4219 L109.6846,198.4219 C107.40692,203.25837 105.74965,208.21801 105.45596,213.52442 C105.18607,215.47952 106.30545,215.51095 106.47549,214.13359 C109.69635,201.07899 126.85036,204.61631 126.25921,216.89325 C125.78075,226.85716 116.43525,228.99973 111.5614,225.74053 C109.63861,224.54319 109.74693,225.25853 110.79682,226.50506 C118.03588,235.05108 113.65292,246.05607 103.87853,246.26834 C103.87853,246.2684 103.87853,246.26829 103.86853,246.26834 L103.87056,246.26834 Z" id="path147-0-8-1-6-1-4-5-4-2"></path>
                <path d="M197.85252,228.63086 C201.76229,228.54246 203.51553,223.957 200.61991,220.39616 C200.19989,219.87677 200.15659,219.57871 200.92574,220.07761 C202.8753,221.43561 206.61345,220.54286 206.80489,216.39123 C207.04133,211.27584 200.17969,209.80196 198.89136,215.24137 C198.82366,215.81528 198.37557,215.80219 198.48359,214.98756 C198.60106,212.77655 199.26389,210.71004 200.17501,208.69484 L195.52714,208.69484 C196.43826,210.71004 197.10108,212.77655 197.21856,214.98756 C197.32657,215.80219 196.87878,215.81528 196.81079,215.24137 C195.52246,209.80196 188.66082,211.27584 188.89726,216.39123 C189.0887,220.54286 192.82684,221.43561 194.7764,220.07761 C195.54556,219.57871 195.50225,219.87677 195.08223,220.39616 C192.18661,223.957 193.93985,228.5424 197.84953,228.63086 C197.85052,228.63088 197.84953,228.63084 197.84953,228.63086 L197.85252,228.63086 Z" id="path147-6-9-8-7-0-5-4-9-1"></path>
                <path d="M9.89758,17.4439 C5.9878,17.5319 4.23456,22.1178 7.13018,25.6786 C7.5502,26.198 7.59351,26.4961 6.82435,25.9972 C4.87479,24.6392 1.13666,25.5319 0.94522,29.6835 C0.70878,34.7989 7.57041,36.2728 8.85874,30.8334 C8.92644,30.2595 9.37452,30.2726 9.26651,31.0872 C9.14903,33.2982 8.48621,35.3647 7.57509,37.3799 L12.22296,37.3799 C11.31184,35.3647 10.64901,33.2982 10.53154,31.0872 C10.42352,30.2726 10.87131,30.2595 10.93931,30.8334 C12.22764,36.2728 19.08928,34.7989 18.85284,29.6835 C18.6614,25.5319 14.92325,24.6392 12.97369,25.9972 C12.20454,26.4961 12.24784,26.198 12.66786,25.6786 C15.56348,22.1178 13.81024,17.5324 9.90057,17.4439 C9.89957,17.4439 9.90057,17.4439 9.90057,17.4439 L9.89758,17.4439 Z" id="path147-6-9-8-7-4-5-9-2-7"></path>
            </g>
        </g>
    </g>
</svg>