<?xml version="1.0" encoding="UTF-8" standalone="no"?>
<svg width="227px" height="315px" viewBox="0 0 227 315" version="1.1" xmlns="http://www.w3.org/2000/svg" xmlns:xlink="http://www.w3.org/1999/xlink" xmlns:sketch="http://www.bohemiancoding.com/sketch/ns">
    <!-- Generator: Sketch 3.3.3 (12072) - http://www.bohemiancoding.com/sketch -->
    <title>Trim</title>
    <desc>Created with Sketch.</desc>
    <defs></defs>
    <g id="Page-1" stroke="none" stroke-width="1" fill="none" fill-rule="evenodd" sketch:type="MSPage">
        <g id="Clubs" sketch:type="MSLayerGroup" transform="translate(10.000000, 23.000000)" fill="#000000">
            <g id="4" transform="translate(0.000000, 11.000000)" sketch:type="MSShapeGroup">
                <path d="M154.855541,0.635367271 C145.081068,0.847567695 140.698181,11.8525897 147.93716,20.3986068 C148.987057,21.6452093 149.095457,22.3605107 147.172662,21.1632083 C142.298776,17.9040018 132.953403,20.0465061 132.474904,30.010526 C131.883706,42.2874506 149.037657,45.8247576 152.258548,32.7701315 C152.428548,31.3928288 153.547944,31.4242288 153.278045,33.3793328 C152.984346,38.6857434 151.327251,43.6453533 149.049457,48.481863 L160.669624,48.481863 C158.391931,43.6453533 156.734635,38.6857434 156.440936,33.3793328 C156.171037,31.4242288 157.290434,31.3928288 157.460533,32.7701315 C160.681324,45.8247576 177.835276,42.2874506 177.244178,30.010526 C176.765679,20.0465061 167.420205,17.9040018 162.546419,21.1632083 C160.623624,22.3605107 160.731924,21.6452093 161.781821,20.3986068 C169.020801,11.8525897 164.637913,0.847567695 154.863541,0.635367271 C154.863541,0.63526727 154.863541,0.635367271 154.853541,0.635367271 L154.855541,0.635367271 Z" id="path147-0-8-1-6-13-2-06-7"></path>
                <path d="M51.7850314,0.635367271 C42.010559,0.847567695 37.6276713,11.8525897 44.8666509,20.3986068 C45.916548,21.6452093 46.0248476,22.3605107 44.1021531,21.1632083 C39.2282668,17.9040018 29.8828932,20.0465061 29.4042945,30.010526 C28.8131962,42.2874506 45.9671478,45.8247576 49.1880387,32.7701315 C49.3580382,31.3928288 50.4774351,31.4242288 50.2075359,33.3793328 C49.9138367,38.6857434 48.2566414,43.6453533 45.9789478,48.481863 L57.599115,48.481863 C55.3214214,43.6453533 53.6641261,38.6857434 53.3704269,33.3793328 C53.1005277,31.4242288 54.2199245,31.3928288 54.3900241,32.7701315 C57.610815,45.8247576 74.7647666,42.2874506 74.1736683,30.010526 C73.6951696,20.0465061 64.349696,17.9040018 59.4759097,21.1632083 C57.5531151,22.3605107 57.6614148,21.6452093 58.7113119,20.3986068 C65.9502915,11.8525897 61.5674038,0.847567695 51.7930314,0.635367271 C51.7930314,0.63526727 51.7930314,0.635367271 51.7830314,0.635367271 L51.7850314,0.635367271 Z" id="path147-0-8-1-6-75-2-83-35-3"></path>
                <path d="M154.855541,246.268869 C145.081068,246.056608 140.698181,235.051576 147.93716,226.505549 C148.987057,225.259017 149.095457,224.543665 147.172662,225.741017 C142.298776,229.000214 132.953403,226.85765 132.474904,216.89372 C131.883706,204.616745 149.037657,201.079428 152.258548,214.134044 C152.428548,215.511407 153.547944,215.479987 153.278045,213.524883 C152.984346,208.218462 151.327251,203.258803 149.049457,198.422323 L160.669624,198.422323 C158.391931,203.258803 156.734635,208.218462 156.440936,213.524883 C156.171037,215.479987 157.290434,215.511407 157.460533,214.134044 C160.681324,201.079428 177.835276,204.616745 177.244178,216.89372 C176.765679,226.85765 167.420205,229.000214 162.546419,225.741017 C160.623624,224.543665 160.731924,225.259017 161.781821,226.505549 C169.020801,235.051576 164.637913,246.056598 154.863541,246.268869 C154.863541,246.268929 154.863541,246.268819 154.853541,246.268869 L154.855541,246.268869 Z" id="path147-0-8-1-6-7-5-5-7-77-6"></path>
                <path d="M51.7850314,246.268869 C42.010559,246.056608 37.6276713,235.051576 44.8666509,226.505549 C45.916548,225.259017 46.0248476,224.543665 44.1021531,225.741017 C39.2282668,229.000214 29.8828932,226.85765 29.4042945,216.89372 C28.8131962,204.616745 45.9671478,201.079428 49.1880387,214.134044 C49.3580382,215.511407 50.4774351,215.479987 50.2075359,213.524883 C49.9138367,208.218462 48.2566414,203.258803 45.9789478,198.422323 L57.599115,198.422323 C55.3214214,203.258803 53.6641261,208.218462 53.3704269,213.524883 C53.1005277,215.479987 54.2199245,215.511407 54.3900241,214.134044 C57.610815,201.079428 74.7647666,204.616745 74.1736683,216.89372 C73.6951696,226.85765 64.349696,229.000214 59.4759097,225.741017 C57.5531151,224.543665 57.6614148,225.259017 58.7113119,226.505549 C65.9502915,235.051576 61.5674038,246.056598 51.7930314,246.268869 C51.7930314,246.268929 51.7930314,246.268819 51.7830314,246.268869 L51.7850314,246.268869 Z" id="path147-0-8-1-6-75-6-1-2-08-0"></path>
                <path d="M197.302021,228.631343 C201.21181,228.542943 202.965005,223.957474 200.069413,220.396637 C199.649414,219.877246 199.606115,219.579175 200.375212,220.078076 C202.324807,221.436079 206.062896,220.543337 206.254396,216.391699 C206.490795,211.276289 199.629214,209.802406 198.340818,215.241836 C198.272818,215.815748 197.82502,215.802648 197.933119,214.988016 C198.050519,212.777012 198.713417,210.710487 199.624514,208.695293 L194.976628,208.695293 C195.887725,210.710487 196.550623,212.777012 196.668023,214.988016 C196.776023,215.802648 196.328324,215.815748 196.260324,215.241836 C194.971928,209.802406 188.110347,211.276289 188.346746,216.391699 C188.538246,220.543337 192.276335,221.436079 194.22593,220.078076 C194.995028,219.579175 194.951728,219.877246 194.531729,220.396637 C191.636137,223.957474 193.389332,228.542893 197.299021,228.631343 C197.300021,228.631363 197.299021,228.631323 197.299021,228.631343 L197.302021,228.631343 Z" id="path147-6-9-8-7-0-5-6-17-9"></path>
                <path d="M9.34765108,17.4440009 C5.43786211,17.5320011 3.68456705,22.1178102 6.58025888,25.6787174 C7.0002577,26.1981184 7.04355758,26.496119 6.27435975,25.997218 C4.32486524,24.6392153 0.586675786,25.5320171 0.395276325,29.6836254 C0.158876992,34.7990356 7.02045764,36.2729385 8.30875401,30.8335277 C8.37675382,30.2596265 8.82455255,30.2727265 8.71655286,31.0873282 C8.59905319,33.2983326 7.93625506,35.3648367 7.02515763,37.3800408 L11.6729445,37.3800408 C10.7618471,35.3648367 10.099049,33.2983326 9.98154929,31.0873282 C9.8735496,30.2727265 10.3213483,30.2596265 10.3893481,30.8335277 C11.6776445,36.2729385 18.5393252,34.7990356 18.3028258,29.6836254 C18.1114264,25.5320171 14.3732369,24.6392153 12.4237424,25.997218 C11.6545446,26.496119 11.6978445,26.1981184 12.1178433,25.6787174 C15.0135351,22.1178102 13.26024,17.5324011 9.35055107,17.4440009 C9.34955107,17.4440009 9.35055107,17.4440009 9.35055107,17.4440009 L9.34765108,17.4440009 Z" id="path147-6-9-8-7-4-5-62-79-3"></path>
            </g>
        </g>
    </g>
</svg>