<?xml version="1.0" encoding="UTF-8" standalone="no"?>
<svg width="227px" height="315px" viewBox="0 0 227 315" version="1.1" xmlns="http://www.w3.org/2000/svg" xmlns:xlink="http://www.w3.org/1999/xlink" xmlns:sketch="http://www.bohemiancoding.com/sketch/ns">
    <!-- Generator: Sketch 3.3.3 (12072) - http://www.bohemiancoding.com/sketch -->
    <title>Trim</title>
    <desc>Created with Sketch.</desc>
    <defs></defs>
    <g id="Page-1" stroke="none" stroke-width="1" fill="none" fill-rule="evenodd" sketch:type="MSPage">
        <g id="Clubs" sketch:type="MSLayerGroup" transform="translate(10.000000, 23.000000)" fill="#000000">
            <g id="6" transform="translate(0.000000, 11.000000)" sketch:type="MSShapeGroup">
                <path d="M155.305739,0.635367271 C145.531267,0.847567695 141.148379,11.8525897 148.387359,20.3986068 C149.437256,21.6452093 149.545556,22.3605107 147.622761,21.1632083 C142.748975,17.9040018 133.403601,20.0465061 132.925003,30.010426 C132.333904,42.2874506 149.487856,45.8247576 152.708647,32.7701315 C152.878746,31.3928288 153.998243,31.4242288 153.728244,33.3793328 C153.434545,38.6857434 151.777349,43.6453533 149.499556,48.481863 L161.119723,48.481863 C158.84213,43.6453533 157.184834,38.6857434 156.891135,33.3793328 C156.621236,31.4242288 157.740633,31.3928288 157.910632,32.7701315 C161.131523,45.8247576 178.285475,42.2874506 177.694376,30.010426 C177.215878,20.0465061 167.870404,17.9040018 162.996518,21.1632083 C161.073823,22.3605107 161.182123,21.6452093 162.23202,20.3986068 C169.471,11.8525897 165.088112,0.847567695 155.313739,0.635367271 C155.313739,0.63526727 155.313739,0.635367271 155.303739,0.635367271 L155.305739,0.635367271 Z" id="path147-0-8-1-6-13-2-5-7-1"></path>
                <path d="M52.2352301,0.635367271 C42.4607577,0.847567695 38.0778701,11.8525897 45.3168496,20.3986068 C46.3667467,21.6452093 46.4750464,22.3605107 44.5522518,21.1632083 C39.6784655,17.9040018 30.3330919,20.0465061 29.8545932,30.010426 C29.2633949,42.2874506 46.4173465,45.8247576 49.6381375,32.7701315 C49.808237,31.3928288 50.9276338,31.4242288 50.6577346,33.3793328 C50.3640354,38.6857434 48.7068401,43.6453533 46.4290465,48.481863 L58.0492137,48.481863 C55.7715202,43.6453533 54.1143248,38.6857434 53.8206257,33.3793328 C53.5507264,31.4242288 54.6701233,31.3928288 54.8401228,32.7701315 C58.0610137,45.8247576 75.2149653,42.2874506 74.623767,30.010426 C74.1453683,20.0465061 64.7998947,17.9040018 59.9260084,21.1632083 C58.0032139,22.3605107 58.1116136,21.6452093 59.1615106,20.3986068 C66.4004902,11.8525897 62.0176025,0.847567695 52.2432301,0.635367271 C52.2432301,0.63526727 52.2432301,0.635367271 52.2332301,0.635367271 L52.2352301,0.635367271 Z" id="path147-0-8-1-6-75-2-83-8-8-7"></path>
                <path d="M155.305739,246.268859 C145.531267,246.056598 141.148379,235.051576 148.387359,226.505539 C149.437256,225.259007 149.545556,224.543665 147.622761,225.741017 C142.748975,229.000214 133.403701,226.85764 132.925003,216.89372 C132.334004,204.616745 149.487856,201.079418 152.708647,214.134044 C152.878746,215.511407 153.998243,215.479977 153.728244,213.524883 C153.434545,208.218452 151.777349,203.258803 149.499556,198.422323 L161.119723,198.422323 C158.84213,203.258803 157.184834,208.218452 156.891135,213.524883 C156.621236,215.479977 157.740633,215.511407 157.910632,214.134044 C161.131523,201.079418 178.285475,204.616745 177.694376,216.89372 C177.215878,226.85764 167.870404,229.000214 162.996518,225.741017 C161.073823,224.543665 161.182123,225.259007 162.23202,226.505539 C169.471,235.051576 165.088112,246.056588 155.313739,246.268859 C155.313739,246.268919 155.313739,246.268809 155.303739,246.268859 L155.305739,246.268859 Z" id="path147-0-8-1-6-7-5-5-7-8-7-8"></path>
                <path d="M52.2352301,246.268859 C42.4607577,246.056598 38.0778701,235.051576 45.3168496,226.505539 C46.3667467,225.259007 46.4750464,224.543665 44.5522518,225.741017 C39.6784655,229.000214 30.3330919,226.85764 29.8545932,216.89372 C29.2633949,204.616745 46.4173465,201.079418 49.6381375,214.134044 C49.808237,215.511407 50.9276338,215.479977 50.6577346,213.524883 C50.3640354,208.218452 48.7068401,203.258803 46.4290465,198.422323 L58.0492137,198.422323 C55.7715202,203.258803 54.1143248,208.218452 53.8206257,213.524883 C53.5507264,215.479977 54.6701233,215.511407 54.8401228,214.134044 C58.0610137,201.079418 75.2149653,204.616745 74.623767,216.89372 C74.1453683,226.85764 64.7998947,229.000214 59.9260084,225.741017 C58.0032139,224.543665 58.1116136,225.259007 59.1615106,226.505539 C66.4004902,235.051576 62.0176025,246.056588 52.2432301,246.268859 C52.2432301,246.268919 52.2432301,246.268809 52.2332301,246.268859 L52.2352301,246.268859 Z" id="path147-0-8-1-6-75-6-1-2-0-6-8"></path>
                <path d="M155.305739,99.5288251 C145.531267,99.7410855 141.148379,110.746107 148.387359,119.292145 C149.437256,120.538677 149.545556,121.254029 147.622761,120.056676 C142.748975,116.79748 133.403601,118.940044 132.925003,128.903974 C132.334004,141.180938 149.487856,144.718265 152.708647,131.663639 C152.878746,130.286277 153.998143,130.317707 153.728244,132.272811 C153.434545,137.579231 151.777349,142.538881 149.499556,147.375361 L161.119723,147.375361 C158.84213,142.538881 157.184834,137.579231 156.891135,132.272811 C156.621236,130.317707 157.740633,130.286277 157.910632,131.663639 C161.131523,144.718265 178.285475,141.180938 177.694376,128.903974 C177.215878,118.940044 167.870404,116.79748 162.996518,120.056676 C161.073823,121.254029 161.182123,120.538677 162.23202,119.292145 C169.471,110.746107 165.088112,99.7410955 155.313739,99.5288251 C155.313739,99.5287651 155.313739,99.5288751 155.303739,99.5288251 L155.305739,99.5288251 Z" id="path147-0-8-1-6-7-5-7-3-0-9-6-4"></path>
                <path d="M52.2352301,99.5288251 C42.4607577,99.7410855 38.0778701,110.746107 45.3168496,119.292145 C46.3667467,120.538677 46.4750464,121.254029 44.5522518,120.056676 C39.6784655,116.79748 30.3330919,118.940044 29.8545932,128.903974 C29.2633949,141.180938 46.4173465,144.718265 49.6381375,131.663639 C49.808237,130.286277 50.9276338,130.317707 50.6577346,132.272811 C50.3640354,137.579231 48.7068401,142.538881 46.4290465,147.375361 L58.0492137,147.375361 C55.7715202,142.538881 54.1143248,137.579231 53.8206257,132.272811 C53.5507264,130.317707 54.6701233,130.286277 54.8401228,131.663639 C58.0610137,144.718265 75.2149653,141.180938 74.623767,128.903974 C74.1453683,118.940044 64.7998947,116.79748 59.9260084,120.056676 C58.0032139,121.254029 58.1116136,120.538677 59.1615106,119.292145 C66.4004902,110.746107 62.0176025,99.7410955 52.2432301,99.5288251 C52.2432301,99.5287651 52.2432301,99.5288751 52.2332301,99.5288251 L52.2352301,99.5288251 Z" id="path147-0-8-1-6-75-6-6-5-3-0-0-2"></path>
                <path d="M197.75232,228.631343 C201.662009,228.542943 203.415304,223.957474 200.519612,220.396637 C200.099613,219.877236 200.056313,219.579175 200.825511,220.078076 C202.775006,221.436079 206.513195,220.543327 206.704595,216.391699 C206.941094,211.276289 200.079413,209.802406 198.791117,215.241836 C198.723117,215.815738 198.275318,215.802648 198.383318,214.988016 C198.500818,212.777012 199.163616,210.710487 200.074713,208.695283 L195.426926,208.695283 C196.338024,210.710487 197.000822,212.777012 197.118322,214.988016 C197.226321,215.802648 196.778523,215.815738 196.710523,215.241836 C195.422226,209.802406 188.560646,211.276289 188.797045,216.391699 C188.988444,220.543327 192.726634,221.436079 194.676128,220.078076 C195.445326,219.579175 195.402026,219.877236 194.982028,220.396637 C192.086336,223.957474 193.839631,228.542883 197.74932,228.631343 C197.75032,228.631363 197.74932,228.631323 197.74932,228.631343 L197.75232,228.631343 Z" id="path147-6-9-8-7-0-5-6-4-2-8"></path>
                <path d="M9.79784981,17.4440009 C5.88806084,17.5320011 4.13476578,22.1178102 7.03045761,25.6787174 C7.45045643,26.1981184 7.49375631,26.496119 6.72455848,25.997218 C4.77506397,24.6392153 1.03687452,25.5320171 0.845475056,29.6836254 C0.609075722,34.7990356 7.47065637,36.2729385 8.75895274,30.8335277 C8.82695255,30.2596265 9.27475129,30.2727265 9.16675159,31.0873282 C9.04925192,33.2983326 8.38645379,35.3648367 7.47535636,37.3800408 L12.1231433,37.3800408 C11.2120458,35.3648367 10.5492477,33.2983326 10.431748,31.0873282 C10.3237483,30.2727265 10.7715471,30.2596265 10.8395469,30.8335277 C12.1278432,36.2729385 18.9895239,34.7990356 18.7530246,29.6836254 C18.5616251,25.5320171 14.8234356,24.6392153 12.8739411,25.997218 C12.1047433,26.496119 12.1480432,26.1981184 12.568042,25.6787174 C15.4637338,22.1178102 13.7104388,17.5324011 9.8008498,17.4440009 C9.7998498,17.4440009 9.8008498,17.4440009 9.8008498,17.4440009 L9.79784981,17.4440009 Z" id="path147-6-9-8-7-4-5-62-0-2-9"></path>
            </g>
        </g>
    </g>
</svg>