<?xml version="1.0" encoding="UTF-8" standalone="no"?>
<svg width="227px" height="315px" viewBox="0 0 227 315" version="1.1" xmlns="http://www.w3.org/2000/svg" xmlns:xlink="http://www.w3.org/1999/xlink" xmlns:sketch="http://www.bohemiancoding.com/sketch/ns">
    <!-- Generator: Sketch 3.3.3 (12072) - http://www.bohemiancoding.com/sketch -->
    <title>Trim</title>
    <desc>Created with Sketch.</desc>
    <defs></defs>
    <g id="Page-1" stroke="none" stroke-width="1" fill="none" fill-rule="evenodd" sketch:type="MSPage">
        <g id="Clubs" sketch:type="MSLayerGroup" transform="translate(10.000000, 23.000000)" fill="#000000">
            <g id="9" transform="translate(0.000000, 11.000000)" sketch:type="MSShapeGroup">
                <path d="M154.98094,0.635367271 C145.206468,0.847567695 140.82348,11.8525897 148.06256,20.3986068 C149.112457,21.6452093 149.220757,22.3605107 147.297962,21.1632083 C142.424176,17.9040018 133.078802,20.0465061 132.600204,30.010426 C132.009105,42.2874506 149.163057,45.8247576 152.383848,32.7701315 C152.553947,31.3928288 153.673444,31.4242288 153.403445,33.3793328 C153.109746,38.6857434 151.45255,43.6453533 149.174757,48.481863 L160.794924,48.481863 C158.51723,43.6453533 156.860035,38.6857434 156.566336,33.3793328 C156.296437,31.4242288 157.415834,31.3928288 157.585833,32.7701315 C160.806724,45.8247576 177.960676,42.2874506 177.369477,30.010426 C176.891079,20.0465061 167.545605,17.9040018 162.671719,21.1632083 C160.748924,22.3605107 160.857324,21.6452093 161.907121,20.3986068 C169.1462,11.8525897 164.763213,0.847567695 154.98894,0.635367271 C154.98894,0.63526727 154.98894,0.635367271 154.97894,0.635367271 L154.98094,0.635367271 Z" id="path147-0-8-1-6-13-2-9-8-8"></path>
                <path d="M51.9104311,0.635367271 C42.1359586,0.847567695 37.752971,11.8525897 44.9920506,20.3986068 C46.0419476,21.6452093 46.1502473,22.3605107 44.2274527,21.1632083 C39.3536665,17.9040018 30.0083928,20.0465061 29.5296942,30.010426 C28.9385958,42.2874506 46.0925475,45.8247576 49.3133384,32.7701315 C49.4834379,31.3928288 50.6027347,31.4242288 50.3329355,33.3793328 C50.0392363,38.6857434 48.382041,43.6453533 46.1042474,48.481863 L57.7244147,48.481863 C55.4467211,43.6453533 53.7895258,38.6857434 53.4958266,33.3793328 C53.2259273,31.4242288 54.3453242,31.3928288 54.5153237,32.7701315 C57.7362146,45.8247576 74.8901662,42.2874506 74.2989679,30.010426 C73.8205693,20.0465061 64.4750956,17.9040018 59.6012094,21.1632083 C57.6784148,22.3605107 57.7867145,21.6452093 58.8366115,20.3986068 C66.0756911,11.8525897 61.6927035,0.847567695 51.918331,0.635367271 C51.918331,0.63526727 51.918331,0.635367271 51.9083311,0.635367271 L51.9104311,0.635367271 Z" id="path147-0-8-1-6-75-2-83-3-5-0"></path>
                <path d="M154.98094,246.268859 C145.206468,246.056598 140.82348,235.051576 148.06256,226.505539 C149.112457,225.259007 149.220757,224.543665 147.297962,225.741017 C142.424176,229.000214 133.078802,226.85764 132.600204,216.89372 C132.009205,204.616745 149.163057,201.079418 152.383848,214.134044 C152.553947,215.511407 153.673444,215.479977 153.403445,213.524883 C153.109746,208.218452 151.45255,203.258803 149.174757,198.422323 L160.794924,198.422323 C158.51723,203.258803 156.860035,208.218452 156.566336,213.524883 C156.296437,215.479977 157.415834,215.511407 157.585833,214.134044 C160.806724,201.079418 177.960676,204.616745 177.369477,216.89372 C176.891079,226.85764 167.545605,229.000214 162.671719,225.741017 C160.748924,224.543665 160.857324,225.259007 161.907121,226.505539 C169.1462,235.051576 164.763213,246.056588 154.98894,246.268859 C154.98894,246.268919 154.98894,246.268809 154.97894,246.268859 L154.98094,246.268859 Z" id="path147-0-8-1-6-7-5-5-7-63-0-4"></path>
                <path d="M51.9104311,246.268859 C42.1359586,246.056598 37.752971,235.051576 44.9920506,226.505539 C46.0419476,225.259007 46.1502473,224.543665 44.2274527,225.741017 C39.3536665,229.000214 30.0083928,226.85764 29.5296942,216.89372 C28.9385958,204.616745 46.0925475,201.079418 49.3133384,214.134044 C49.4834379,215.511407 50.6027347,215.479977 50.3329355,213.524883 C50.0392363,208.218452 48.382041,203.258803 46.1042474,198.422323 L57.7244147,198.422323 C55.4467211,203.258803 53.7895258,208.218452 53.4958266,213.524883 C53.2259273,215.479977 54.3453242,215.511407 54.5153237,214.134044 C57.7362146,201.079418 74.8901662,204.616745 74.2989679,216.89372 C73.8205693,226.85764 64.4750956,229.000214 59.6012094,225.741017 C57.6784148,224.543665 57.7867145,225.259007 58.8366115,226.505539 C66.0756911,235.051576 61.6927035,246.056588 51.918331,246.268859 C51.918331,246.268919 51.918331,246.268809 51.9083311,246.268859 L51.9104311,246.268859 Z" id="path147-0-8-1-6-75-6-1-2-46-5-0"></path>
                <path d="M103.445686,99.5288251 C93.6712133,99.7410855 89.2883256,110.746107 96.5273052,119.292145 C97.5773023,120.538677 97.685602,121.254029 95.7627074,120.056676 C90.8890211,116.79748 81.5435475,118.940044 81.0650488,128.903974 C80.4739505,141.180938 97.6278021,144.718265 100.848593,131.663639 C101.018693,130.286277 102.137989,130.317707 101.86819,132.272811 C101.574491,137.579231 99.9173957,142.538881 97.6396021,147.375361 L109.259669,147.375361 C106.981976,142.538881 105.32478,137.579231 105.031081,132.272811 C104.761182,130.317707 105.880579,130.286277 106.050578,131.663639 C109.271469,144.718265 126.425421,141.180938 125.834223,128.903974 C125.355824,118.940044 116.01035,116.79748 111.136464,120.056676 C109.213669,121.254029 109.321969,120.538677 110.371866,119.292145 C117.610946,110.746107 113.227958,99.7410955 103.453686,99.5288251 C103.453686,99.5287651 103.453686,99.5288751 103.443686,99.5288251 L103.445686,99.5288251 Z" id="path147-0-8-1-6-1-1-0-5-61-2-0"></path>
                <path d="M197.427421,228.631343 C201.33711,228.542943 203.090505,223.957474 200.194813,220.396637 C199.774814,219.877236 199.731514,219.579175 200.500712,220.078076 C202.450207,221.436079 206.188396,220.543327 206.379795,216.391699 C206.616195,211.276289 199.754514,209.802406 198.466318,215.241836 C198.398318,215.815738 197.950519,215.802648 198.058419,214.988016 C198.176019,212.777012 198.838817,210.710487 199.749814,208.695283 L195.102127,208.695283 C196.013225,210.710487 196.676023,212.777012 196.793522,214.988016 C196.901522,215.802648 196.453723,215.815738 196.385624,215.241836 C195.097427,209.802406 188.235747,211.276289 188.472246,216.391699 C188.663645,220.543327 192.401735,221.436079 194.351329,220.078076 C195.120527,219.579175 195.077227,219.877236 194.657229,220.396637 C191.761537,223.957474 193.514832,228.542883 197.424421,228.631343 C197.424421,228.631363 197.424421,228.631323 197.424421,228.631343 L197.427421,228.631343 Z" id="path147-6-9-8-7-0-5-6-5-2-8"></path>
                <path d="M51.9104311,66.5643191 C42.1360586,66.7765796 37.753071,77.7816016 44.9920506,86.3276387 C46.0419476,87.5741711 46.1503473,88.2895226 44.2275527,87.0921702 C39.3537665,83.8329737 30.0083928,85.975538 29.5297942,95.9394679 C28.9385958,108.216432 46.0926475,111.75376 49.3134384,98.6991334 C49.4835379,97.3217706 50.6027347,97.3532007 50.3330355,99.3083046 C50.0393363,104.614725 48.382141,109.574375 46.1043474,114.410855 L57.7244147,114.410855 C55.4467211,109.574375 53.7895258,104.614725 53.4958266,99.3083046 C53.2259273,97.3532007 54.3453242,97.3217706 54.5153237,98.6991334 C57.7362146,111.75376 74.8901662,108.216432 74.2989679,95.9394679 C73.8205693,85.975538 64.4750956,83.8329737 59.6012094,87.0921702 C57.6784148,88.2895226 57.7867145,87.5741711 58.8366115,86.3276387 C66.0756911,77.7816016 61.6927035,66.7765896 51.918331,66.5643191 C51.918331,66.5642591 51.918331,66.5643691 51.9083311,66.5643191 L51.9104311,66.5643191 Z" id="path147-0-8-1-6-75-2-9-77-4-4-2"></path>
                <path d="M51.9104311,180.339857 C42.1359586,180.127606 37.752971,169.122564 44.9920506,160.576527 C46.0419476,159.329995 46.1502473,158.614653 44.2274527,159.812006 C39.3536665,163.071202 30.0083928,160.928628 29.5296942,150.964708 C28.9385958,138.687733 46.0925475,135.150406 49.3133384,148.205032 C49.4834379,149.582395 50.6027347,149.550965 50.3329355,147.595871 C50.0392363,142.289441 48.382041,137.329791 46.1042474,132.493311 L57.7244147,132.493311 C55.4467211,137.329791 53.7895258,142.289441 53.4958266,147.595871 C53.2259273,149.550965 54.3453242,149.582395 54.5153237,148.205032 C57.7362146,135.150406 74.8901662,138.687733 74.2989679,150.964708 C73.8205693,160.928628 64.4750956,163.071202 59.6012094,159.812006 C57.6784148,158.614653 57.7867145,159.329995 58.8366115,160.576527 C66.0756911,169.122564 61.6927035,180.127596 51.918331,180.339857 C51.918331,180.339917 51.918331,180.339807 51.9083311,180.339857 L51.9104311,180.339857 Z" id="path147-0-8-1-6-75-2-8-0-6-4-4"></path>
                <path d="M154.98094,66.5643191 C145.206468,66.7765796 140.82348,77.7816016 148.06256,86.3276387 C149.112457,87.5741711 149.220757,88.2895226 147.297962,87.0921702 C142.424176,83.8329737 133.078802,85.975538 132.600204,95.9394679 C132.009205,108.216432 149.163057,111.75376 152.383848,98.6991334 C152.553947,97.3217706 153.673344,97.3532007 153.403445,99.3083046 C153.109746,104.614725 151.45255,109.574375 149.174757,114.410855 L160.794924,114.410855 C158.51723,109.574375 156.860035,104.614725 156.566336,99.3083046 C156.296437,97.3532007 157.415834,97.3217706 157.585833,98.6991334 C160.806724,111.75376 177.960676,108.216432 177.369477,95.9394679 C176.891079,85.975538 167.545605,83.8329737 162.671719,87.0921702 C160.748924,88.2895226 160.857324,87.5741711 161.907121,86.3276387 C169.1462,77.7816016 164.763213,66.7765896 154.98894,66.5643191 C154.98894,66.5642591 154.98894,66.5643691 154.97894,66.5643191 L154.98094,66.5643191 Z" id="path147-0-8-1-6-75-2-9-7-1-36-2-4"></path>
                <path d="M154.98094,180.339857 C145.206468,180.127606 140.82348,169.122564 148.06256,160.576527 C149.112457,159.329995 149.220757,158.614653 147.297962,159.812006 C142.424176,163.071202 133.078802,160.928628 132.600204,150.964708 C132.009205,138.687733 149.163057,135.150406 152.383848,148.205032 C152.553947,149.582395 153.673344,149.550965 153.403445,147.595871 C153.109746,142.289441 151.45255,137.329791 149.174757,132.493311 L160.794924,132.493311 C158.51723,137.329791 156.860035,142.289441 156.566336,147.595871 C156.296437,149.550965 157.415834,149.582395 157.585833,148.205032 C160.806724,135.150406 177.960676,138.687733 177.369477,150.964708 C176.891079,160.928628 167.545605,163.071202 162.671719,159.812006 C160.748924,158.614653 160.857324,159.329995 161.907121,160.576527 C169.1462,169.122564 164.763213,180.127596 154.98894,180.339857 C154.98894,180.339917 154.98894,180.339807 154.97894,180.339857 L154.98094,180.339857 Z" id="path147-0-8-1-6-75-2-8-5-1-55-5-4"></path>
                <path d="M9.47305073,17.4440009 C5.56326175,17.5320011 3.8100667,22.1178102 6.70565853,25.6787174 C7.12565735,26.1981184 7.16885722,26.496119 6.39985939,25.997218 C4.45016489,24.6392153 0.712175432,25.5320171 0.520675972,29.6836254 C0.284276638,34.7990356 7.14585729,36.2729385 8.43415366,30.8335277 C8.50215346,30.2596265 8.9499522,30.2727265 8.84195251,31.0873282 C8.72445284,33.2983326 8.06165471,35.3648367 7.15055728,37.3800408 L11.7984442,37.3800408 C10.8873467,35.3648367 10.2244486,33.2983326 10.1069489,31.0873282 C9.99894924,30.2727265 10.446648,30.2596265 10.5147478,30.8335277 C11.8030442,36.2729385 18.6647248,34.7990356 18.4282255,29.6836254 C18.236826,25.5320171 14.4987366,24.6392153 12.5491421,25.997218 C11.7800442,26.496119 11.8233441,26.1981184 12.2432429,25.6787174 C15.1389347,22.1178102 13.3856397,17.5324011 9.47605072,17.4440009 L9.47605072,17.4440009 L9.47305073,17.4440009 Z" id="path147-6-9-8-7-4-5-62-7-8-4"></path>
            </g>
        </g>
    </g>
</svg>