<?xml version="1.0" encoding="UTF-8" standalone="no"?>
<svg width="227px" height="315px" viewBox="0 0 227 315" version="1.1" xmlns="http://www.w3.org/2000/svg" xmlns:xlink="http://www.w3.org/1999/xlink" xmlns:sketch="http://www.bohemiancoding.com/sketch/ns">
    <!-- Generator: Sketch 3.3.3 (12072) - http://www.bohemiancoding.com/sketch -->
    <title>Trim</title>
    <desc>Created with Sketch.</desc>
    <defs></defs>
    <g id="Page-1" stroke="none" stroke-width="1" fill="none" fill-rule="evenodd" sketch:type="MSPage">
        <g id="Diamonds" sketch:type="MSLayerGroup" transform="translate(11.000000, 25.000000)" fill="#D40000">
            <g id="5" transform="translate(1.000000, 9.000000)" sketch:type="MSShapeGroup">
                <path d="M8.07194522,37.3029049 C5.92069383,33.7457154 3.65734522,30.2883019 0.829030537,27.3348742 C3.65734522,24.3815442 5.92069383,20.9241327 8.07194522,17.3668405 C10.2231966,20.9241327 12.4864457,24.3815442 15.3148599,27.3348742 C12.4864457,30.2883019 10.2231966,33.7457154 8.07194522,37.3029049 L8.07194522,37.3029049 Z" id="path6722-9"></path>
                <path d="M153.582613,47.9902339 C148.41957,39.4528124 142.987633,31.1551221 136.199578,24.0669531 C142.987633,16.9788837 148.41957,8.68119336 153.582613,0.14367218 C158.745656,8.68119336 164.177494,16.9788837 170.965548,24.0669531 C164.177494,31.1551221 158.745656,39.4528124 153.582613,47.9902339 L153.582613,47.9902339 Z" id="path6724-6"></path>
                <path d="M196.023461,228.554227 C193.872209,224.997034 191.608861,221.539622 188.780546,218.586193 C191.608861,215.632864 193.872209,212.175451 196.023461,208.618159 C198.174712,212.175451 200.437961,215.632864 203.266375,218.586193 C200.437961,221.539622 198.174712,224.997034 196.023461,228.554227 L196.023461,228.554227 Z" id="path6726-3"></path>
                <path d="M50.5120962,47.9902339 C45.3490531,39.4528124 39.9171159,31.1551221 33.1290611,24.0669531 C39.9171159,16.9788837 45.3490531,8.68119336 50.5120962,0.14367218 C55.6751394,8.68119336 61.1069769,16.9788837 67.8950317,24.0669531 C61.1069769,31.1551221 55.6751394,39.4528124 50.5120962,47.9902339 L50.5120962,47.9902339 Z" id="path6728-7"></path>
                <path d="M102.047355,146.883744 C96.8843114,138.346323 91.4523743,130.048632 84.6643195,122.960463 C91.4523743,115.872394 96.8843114,107.574704 102.047355,99.0371824 C107.210398,107.574704 112.642235,115.872394 119.43029,122.960463 C112.642235,130.048632 107.210398,138.346323 102.047355,146.883744 L102.047355,146.883744 Z" id="path6736-0"></path>
                <path d="M50.5120962,245.782318 C45.3490531,237.244897 39.9171159,228.947206 33.1290611,221.859037 C39.9171159,214.770968 45.3490531,206.473278 50.5120962,197.935756 C55.6751394,206.473278 61.1069769,214.770968 67.8950317,221.859037 C61.1069769,228.947206 55.6751394,237.244897 50.5120962,245.782318 L50.5120962,245.782318 Z" id="path6744-9"></path>
                <path d="M153.582613,245.789236 C148.41957,237.251815 142.987633,228.954124 136.199578,221.865955 C142.987633,214.777886 148.41957,206.480195 153.582613,197.942674 C158.745656,206.480195 164.177494,214.777886 170.965548,221.865955 C164.177494,228.954124 158.745656,237.251815 153.582613,245.789236 L153.582613,245.789236 Z" id="path6746-2"></path>
            </g>
        </g>
    </g>
</svg>